<svg version="1.1" id="Layer_1" xmlns="http://www.w3.org/2000/svg" xmlns:xlink="http://www.w3.org/1999/xlink" x="0px" y="0px"
	 width="100%" viewBox="0 0 2000 2000" enable-background="new 0 0 2000 2000" xml:space="preserve">
<path fill="#CE93DF" opacity="1.000000" stroke="none" 
	d="
M1208.000000,0.999998 
	C1472.275024,1.000000 1736.550049,1.000000 2001.000000,1.000000 
	C2001.000000,358.696014 2001.000000,716.392090 2000.626709,1074.595703 
	C1979.079712,1082.047607 1958.068237,1089.545532 1936.695679,1095.811646 
	C1900.996582,1106.278198 1865.143188,1116.242920 1829.202637,1125.850342 
	C1810.456543,1130.861328 1791.464355,1135.045044 1772.442017,1138.906616 
	C1749.388306,1143.586548 1726.235474,1147.832031 1703.031372,1151.701172 
	C1683.929810,1154.886475 1664.720947,1157.488770 1645.502686,1159.895142 
	C1631.378052,1161.663940 1617.165527,1162.742554 1602.984863,1164.048096 
	C1588.145386,1165.414673 1573.311279,1166.886108 1558.448242,1167.936646 
	C1545.047729,1168.883789 1531.611206,1169.874878 1518.190430,1169.878540 
	C1484.903809,1169.887817 1451.614014,1169.511108 1418.331177,1168.956787 
	C1399.739136,1168.647339 1381.162598,1167.485962 1362.570923,1167.062134 
	C1348.748413,1166.746948 1334.911865,1167.092041 1321.084229,1166.921387 
	C1318.349487,1166.887573 1314.831543,1166.726196 1313.040894,1165.109985 
	C1306.331055,1159.053833 1298.354492,1160.894043 1290.845703,1160.997559 
	C1280.420044,1161.140991 1270.002808,1162.219849 1259.591919,1163.025269 
	C1251.337402,1163.664185 1243.108887,1164.710938 1234.846191,1165.138550 
	C1231.260132,1165.324097 1227.617188,1164.409790 1223.950195,1163.628296 
	C1223.322388,1161.880737 1222.543335,1160.548340 1222.197754,1159.111694 
	C1218.827393,1145.104980 1215.463745,1131.095337 1212.343262,1117.032227 
	C1212.109741,1115.979736 1213.453979,1114.007690 1214.585938,1113.316284 
	C1220.747314,1109.552612 1221.003906,1108.693237 1219.064087,1101.530273 
	C1217.159058,1094.496582 1215.215942,1087.418823 1214.110107,1080.234131 
	C1211.845947,1065.523438 1210.146240,1050.726074 1208.184082,1035.968384 
	C1207.241821,1028.882568 1206.475098,1022.127075 1210.110718,1015.132996 
	C1212.781982,1009.994385 1214.790405,1003.645203 1214.484985,997.976074 
	C1213.193115,974.003174 1210.908203,950.084229 1209.019043,926.142944 
	C1207.663818,908.967896 1206.327148,891.791382 1205.044312,874.610840 
	C1203.662476,856.103821 1202.310059,837.594421 1201.026001,819.080444 
	C1199.959717,803.702515 1198.977783,788.318481 1198.019775,772.933411 
	C1196.979126,756.220398 1195.955444,739.505920 1195.023071,722.786621 
	C1193.960815,703.741760 1192.967285,684.692810 1192.020264,665.641846 
	C1191.286987,650.891174 1190.607788,636.137207 1190.019531,621.380188 
	C1189.285400,602.963135 1188.637817,584.542419 1188.013184,566.121338 
	C1187.619141,554.497498 1187.266113,542.871277 1187.018066,531.243530 
	C1186.624390,512.787170 1186.007812,494.327667 1186.063232,475.871185 
	C1186.209839,427.087036 1186.626221,378.303467 1187.035889,329.520508 
	C1187.112549,320.391815 1187.676392,311.267700 1187.982056,302.140350 
	C1188.665894,281.721527 1189.336304,261.302277 1189.996948,240.882721 
	C1190.351440,229.923874 1190.617554,218.961853 1191.032837,208.005402 
	C1191.277832,201.541794 1191.667603,195.081558 1192.111938,188.628036 
	C1193.375122,170.280289 1194.707397,151.937317 1195.997070,133.591370 
	C1196.729248,123.173775 1197.310303,112.744003 1198.175537,102.337692 
	C1199.341553,88.314285 1200.674683,74.304245 1202.016235,60.296146 
	C1202.805176,52.058628 1203.786743,43.839756 1204.615479,35.605816 
	C1205.775879,24.073801 1206.874756,12.535570 1208.000000,0.999998 
z"/>
<path fill="#F0D0EC" opacity="1.000000" stroke="none" 
	d="
M0.999997,870.000000 
	C1.000000,580.410156 1.000000,290.820374 1.000000,1.000000 
	C233.694656,1.000000 466.389374,1.000000 699.540405,1.428169 
	C699.666016,4.148896 699.128296,6.433522 699.040161,8.735362 
	C698.627075,19.525208 698.308105,30.318974 698.011841,41.112885 
	C697.646973,54.404320 697.284119,67.696205 697.017334,80.989845 
	C696.633606,100.113098 696.011108,119.239037 696.065735,138.362183 
	C696.221252,192.811951 696.612061,247.261337 697.028931,301.709961 
	C697.183044,321.835358 697.625671,341.959045 698.017761,362.081940 
	C698.267029,374.875977 698.624329,387.668335 699.006042,400.459259 
	C699.640320,421.712769 700.279297,442.966431 701.018433,464.216461 
	C701.595459,480.806458 702.268921,497.393585 703.005371,513.977295 
	C703.947571,535.194580 704.935059,556.410278 706.017700,577.620789 
	C706.922180,595.340942 708.013062,613.051514 708.981873,630.768433 
	C710.014343,649.648743 710.987000,668.532227 712.015198,687.412781 
	C712.321838,693.042053 712.684509,698.669128 713.096375,704.291687 
	C714.379211,721.804993 715.707397,739.314880 716.999084,756.827454 
	C717.730591,766.745300 718.353027,776.671692 719.152832,786.583862 
	C720.378052,801.768921 721.724182,816.944153 722.998840,832.125244 
	C723.747437,841.041504 724.401123,849.966064 725.197510,858.877930 
	C726.420593,872.563904 728.096680,886.221008 728.882996,899.930420 
	C729.483154,910.393494 729.237610,920.927368 728.847778,931.410400 
	C728.741455,934.267395 726.919006,937.134888 725.593323,939.855835 
	C723.228760,944.709167 720.030029,949.245728 718.307800,954.299011 
	C716.253479,960.326538 715.384827,966.758118 713.643921,973.060425 
	C711.333923,974.004456 709.459045,975.174438 707.416626,975.748962 
	C701.812561,977.325378 698.453735,980.570801 696.757324,986.380127 
	C696.091614,988.660095 692.874817,990.826843 690.341797,991.796753 
	C685.255066,993.744629 679.890625,995.069885 674.548279,996.223755 
	C666.307068,998.003601 658.044739,1000.230835 649.689636,1000.815918 
	C635.525269,1001.807861 621.269836,1001.425232 607.077148,1002.120972 
	C601.368408,1002.400757 595.757629,1004.295898 590.044189,1004.941406 
	C576.970520,1006.418335 564.306213,1003.385498 551.799011,1000.329224 
	C525.345398,993.864807 499.065979,986.690063 472.631012,980.146301 
	C410.905304,964.866760 349.176025,949.596924 287.359650,934.690247 
	C240.904907,923.487854 194.346954,912.706238 147.770370,902.018738 
	C111.884560,893.784485 75.910393,885.932983 39.950405,878.025574 
	C27.004646,875.178894 13.985600,872.665466 0.999997,870.000000 
z"/>
<path fill="#98ACE8" opacity="1.000000" stroke="none" 
	d="
M1033.000000,2001.000000 
	C689.082642,2001.000000 345.165253,2001.000000 1.000000,2001.000000 
	C1.000000,1773.637329 1.000000,1546.274658 1.425020,1318.455811 
	C13.386728,1320.297363 24.952383,1322.459229 36.455002,1324.916138 
	C82.185715,1334.683838 127.975357,1344.194824 173.592087,1354.471436 
	C216.329041,1364.099243 258.957336,1374.241699 301.484528,1384.759766 
	C355.004150,1397.996704 408.414764,1411.681641 461.794250,1425.475708 
	C518.053162,1440.013916 574.114868,1455.329102 630.486572,1469.408813 
	C649.054382,1474.046631 668.312927,1475.933594 687.269409,1478.993164 
	C694.448669,1480.151978 702.181824,1479.776123 708.751282,1482.389893 
	C719.782593,1486.779175 730.943909,1486.177734 742.132324,1485.812988 
	C757.193420,1485.322021 772.215454,1483.721802 787.274597,1483.062134 
	C808.174622,1482.146606 829.093506,1481.662354 850.310791,1481.268799 
	C858.885376,1481.362793 867.153748,1481.192627 875.421387,1480.992554 
	C877.745850,1480.936401 880.080200,1480.908447 882.389038,1480.666748 
	C888.082581,1480.070801 893.955505,1478.088989 898.688782,1483.411255 
	C899.120544,1483.896606 900.250244,1483.959473 901.033447,1483.903809 
	C909.623901,1483.291870 918.201050,1482.404907 926.800781,1482.048340 
	C931.124451,1481.869141 935.499634,1483.021362 939.829163,1482.880859 
	C953.856445,1482.425659 967.875061,1481.684326 981.893127,1480.975952 
	C985.361816,1480.800781 988.811035,1480.258789 992.278870,1480.038452 
	C993.569397,1479.956543 995.386169,1479.819092 996.111450,1480.550781 
	C1000.378845,1484.856323 1005.506958,1482.778076 1010.279297,1482.655518 
	C1016.275269,1482.501709 1022.243774,1479.970825 1028.265991,1482.789062 
	C1029.218628,1483.234863 1030.573120,1482.971313 1031.717041,1482.832153 
	C1036.313721,1482.273315 1040.893677,1481.261597 1045.494141,1481.173462 
	C1048.013916,1481.125122 1050.554565,1482.614990 1053.100952,1483.359009 
	C1054.961670,1483.902710 1056.874390,1484.867798 1058.717041,1484.769165 
	C1066.394409,1484.358643 1074.030396,1481.505981 1081.750244,1484.673706 
	C1082.414062,1484.946167 1083.355957,1484.510498 1084.172119,1484.446899 
	C1090.447632,1483.958618 1096.723877,1483.480957 1103.054321,1483.384033 
	C1107.044922,1501.390869 1111.335693,1518.944336 1114.794067,1536.660278 
	C1117.135376,1548.653687 1118.305908,1560.875488 1119.724365,1573.259766 
	C1108.568115,1575.698853 1097.619385,1577.596558 1086.857056,1580.250366 
	C1084.306274,1580.879517 1080.858398,1583.800171 1080.486816,1586.097534 
	C1079.723999,1590.813477 1077.040894,1591.942871 1073.294434,1593.010376 
	C1062.114746,1596.196045 1050.971558,1599.515869 1039.869019,1602.960449 
	C1037.537476,1603.683716 1035.390137,1605.075439 1033.245850,1606.311646 
	C1028.827759,1608.858887 1024.623657,1611.825317 1020.057678,1614.059692 
	C1003.923035,1621.955566 987.318237,1629.049927 975.261719,1643.215698 
	C969.716797,1649.730835 965.495911,1656.983887 966.145142,1665.699463 
	C966.794373,1674.416504 968.406067,1683.084473 969.968262,1691.706543 
	C976.375916,1727.072021 982.733887,1762.448364 989.490295,1797.748047 
	C993.976746,1821.188110 998.918274,1844.546021 1003.992981,1867.867432 
	C1012.348633,1906.266968 1020.997253,1944.602661 1029.469849,1982.976929 
	C1030.789185,1988.953125 1031.830200,1994.990723 1033.000000,2001.000000 
z"/>
<path fill="#86A3EB" opacity="1.000000" stroke="none" 
	d="
M1033.468628,2001.000000 
	C1031.830200,1994.990723 1030.789185,1988.953125 1029.469849,1982.976929 
	C1020.997253,1944.602661 1012.348633,1906.266968 1003.992981,1867.867432 
	C998.918274,1844.546021 993.976746,1821.188110 989.490295,1797.748047 
	C982.733887,1762.448364 976.375916,1727.072021 969.968262,1691.706543 
	C968.406067,1683.084473 966.794373,1674.416504 966.145142,1665.699463 
	C965.495911,1656.983887 969.716797,1649.730835 975.261719,1643.215698 
	C987.318237,1629.049927 1003.923035,1621.955566 1020.057678,1614.059692 
	C1024.623657,1611.825317 1028.827759,1608.858887 1033.245850,1606.311646 
	C1035.390137,1605.075439 1037.537476,1603.683716 1039.869019,1602.960449 
	C1050.971558,1599.515869 1062.114746,1596.196045 1073.294434,1593.010376 
	C1077.040894,1591.942871 1079.723999,1590.813477 1080.486816,1586.097534 
	C1080.858398,1583.800171 1084.306274,1580.879517 1086.857056,1580.250366 
	C1097.619385,1577.596558 1108.568115,1575.698853 1120.110107,1573.271240 
	C1122.555908,1573.060669 1124.377563,1573.358032 1126.117920,1573.102417 
	C1134.474731,1571.874756 1142.790405,1570.355225 1151.160645,1569.237305 
	C1155.003540,1568.723877 1158.984497,1567.990601 1161.973022,1572.156616 
	C1162.853394,1573.383667 1165.813599,1573.686279 1167.734985,1573.504761 
	C1178.443481,1572.493286 1189.109985,1571.030029 1199.821533,1570.060303 
	C1209.150269,1569.215942 1218.512939,1568.582153 1227.873657,1568.321411 
	C1233.096069,1568.175781 1238.813110,1567.824219 1243.444336,1569.698120 
	C1247.695679,1571.418091 1251.558105,1572.127930 1255.891479,1571.817871 
	C1269.216553,1570.864380 1282.462280,1568.524780 1295.934570,1570.804565 
	C1300.783936,1571.625244 1305.902466,1570.876709 1310.897705,1570.809570 
	C1326.192871,1570.603638 1341.535278,1569.540405 1356.769531,1570.400269 
	C1372.095093,1571.265381 1387.271973,1574.499512 1402.588257,1575.859741 
	C1422.893921,1577.662842 1443.267822,1578.717285 1463.619995,1579.972290 
	C1476.369141,1580.758667 1489.126221,1581.478394 1501.890015,1581.950684 
	C1523.474731,1582.749390 1545.066650,1583.851685 1566.657104,1583.886475 
	C1606.449341,1583.950562 1646.243286,1583.380615 1686.035278,1582.966064 
	C1695.665894,1582.865723 1705.293213,1582.376831 1714.919678,1582.004150 
	C1731.510742,1581.362061 1748.100586,1580.693848 1764.689209,1579.993164 
	C1779.946899,1579.348877 1795.203735,1578.678101 1810.457886,1577.954956 
	C1815.756714,1577.703735 1821.050537,1577.312378 1826.339722,1576.895508 
	C1842.523438,1575.620239 1858.703613,1574.300171 1874.885376,1572.999878 
	C1883.805908,1572.282959 1892.734375,1571.653931 1901.645508,1570.836304 
	C1914.834839,1569.625977 1928.012695,1568.288940 1941.194214,1566.994629 
	C1948.941772,1566.234009 1956.687500,1565.454468 1964.433350,1564.677246 
	C1976.622559,1563.454224 1988.811157,1562.226074 2001.000000,1561.000000 
	C2001.000000,1707.621094 2001.000000,1854.242188 2001.000000,2001.000000 
	C1678.645752,2001.000000 1356.291504,2001.000000 1033.468628,2001.000000 
z"/>
<path fill="#E5BCE8" opacity="1.000000" stroke="none" 
	d="
M714.002441,973.014648 
	C715.384827,966.758118 716.253479,960.326538 718.307800,954.299011 
	C720.030029,949.245728 723.228760,944.709167 725.593323,939.855835 
	C726.919006,937.134888 728.741455,934.267395 728.847778,931.410400 
	C729.237610,920.927368 729.483154,910.393494 728.882996,899.930420 
	C728.096680,886.221008 726.420593,872.563904 725.197510,858.877930 
	C724.401123,849.966064 723.747437,841.041504 722.998840,832.125244 
	C721.724182,816.944153 720.378052,801.768921 719.152832,786.583862 
	C718.353027,776.671692 717.730591,766.745300 716.999084,756.827454 
	C715.707397,739.314880 714.379211,721.804993 713.096375,704.291687 
	C712.684509,698.669128 712.321838,693.042053 712.015198,687.412781 
	C710.987000,668.532227 710.014343,649.648743 708.981873,630.768433 
	C708.013062,613.051514 706.922180,595.340942 706.017700,577.620789 
	C704.935059,556.410278 703.947571,535.194580 703.005371,513.977295 
	C702.268921,497.393585 701.595459,480.806458 701.018433,464.216461 
	C700.279297,442.966431 699.640320,421.712769 699.006042,400.459259 
	C698.624329,387.668335 698.267029,374.875977 698.017761,362.081940 
	C697.625671,341.959045 697.183044,321.835358 697.028931,301.709961 
	C696.612061,247.261337 696.221252,192.811951 696.065735,138.362183 
	C696.011108,119.239037 696.633606,100.113098 697.017334,80.989845 
	C697.284119,67.696205 697.646973,54.404320 698.011841,41.112885 
	C698.308105,30.318974 698.627075,19.525208 699.040161,8.735362 
	C699.128296,6.433522 699.666016,4.148896 699.998291,1.428169 
	C769.020874,1.000000 838.041809,1.000000 907.531372,1.462540 
	C907.339539,11.846528 906.603088,21.763626 906.035156,31.690367 
	C904.974121,50.236122 903.954224,68.784630 903.024963,87.337395 
	C902.269409,102.420715 901.588135,117.508812 901.024292,132.600403 
	C900.273804,152.683990 899.619019,172.771500 899.018860,192.860184 
	C898.596863,206.983368 898.216614,221.109741 898.025269,235.237488 
	C897.612610,265.692200 897.232422,296.148132 897.059998,326.604797 
	C897.006470,336.062775 897.845459,345.522430 897.964966,354.985260 
	C898.383301,388.106110 898.611145,421.229340 899.028259,454.350159 
	C899.183105,466.645264 899.633118,478.937103 899.996643,491.229004 
	C900.644958,513.149231 901.264648,535.070679 902.021301,556.987305 
	C902.571045,572.912048 903.278564,588.831787 903.994324,604.750244 
	C904.955750,626.133972 905.954407,647.516174 907.012878,668.895264 
	C907.586853,680.488098 908.352112,692.071228 908.971191,703.661987 
	C910.006470,723.042603 910.981384,742.426453 912.008545,761.807556 
	C912.315796,767.603760 912.657898,773.399170 913.077942,779.188110 
	C914.360718,796.868469 915.695435,814.545105 916.997803,832.224060 
	C917.716309,841.976501 918.354065,851.735291 919.128967,861.483154 
	C920.375610,877.166809 921.661072,892.847717 923.016663,908.522278 
	C923.872375,918.416870 925.259583,928.280273 925.726868,938.189758 
	C926.232849,948.918823 927.494995,959.971130 925.577148,970.356079 
	C923.602234,981.049377 922.376648,991.445679 922.833801,1002.274658 
	C923.088989,1008.317810 920.903259,1014.472900 921.227417,1020.501709 
	C921.517883,1025.901733 920.752625,1030.147217 916.832336,1033.965820 
	C915.685059,1035.083374 915.315796,1037.235840 915.052612,1038.983521 
	C913.995850,1046.001343 913.207703,1053.059692 912.130554,1060.074097 
	C911.758545,1062.496826 911.516235,1065.463379 910.023071,1067.082764 
	C906.769653,1070.611328 906.460388,1074.746338 905.631592,1079.162476 
	C902.680481,1079.847168 900.108032,1080.563477 897.491821,1080.804443 
	C896.427185,1080.902588 894.508484,1080.200684 894.281616,1079.462280 
	C893.269104,1076.167603 891.304443,1077.229980 889.146912,1077.786255 
	C881.118469,1079.856445 873.103821,1082.021118 864.991943,1083.707642 
	C861.572327,1084.418457 857.912903,1084.241943 854.383423,1084.061035 
	C852.203796,1083.949219 849.951477,1082.339966 847.924194,1082.652222 
	C835.877930,1084.507690 823.888977,1086.734009 811.876038,1088.807983 
	C811.240112,1088.917847 810.200867,1089.042236 809.955994,1088.711182 
	C806.514038,1084.058105 802.047668,1087.027710 797.933960,1086.623047 
	C796.718140,1085.499756 795.563049,1084.129639 794.414307,1084.134888 
	C791.002808,1084.150635 789.240112,1083.633301 788.591431,1079.454590 
	C788.072144,1076.109375 787.639526,1070.874268 781.341553,1071.623657 
	C780.440063,1071.731079 778.037720,1068.440674 778.256348,1067.019165 
	C778.913574,1062.747314 778.139160,1061.451050 773.701416,1062.785034 
	C769.978210,1063.904175 768.110535,1061.926514 769.219788,1058.256348 
	C770.587524,1053.730957 769.119324,1052.960449 764.947571,1053.859863 
	C763.098633,1054.258545 760.593872,1054.720093 760.430481,1051.062866 
	C760.224121,1046.446045 759.359741,1041.858643 758.782593,1037.285156 
	C750.651917,1038.378662 750.651917,1038.378662 751.549255,1027.401245 
	C749.778687,1027.401245 748.001099,1027.169312 746.306213,1027.445435 
	C741.570740,1028.216675 740.842957,1027.590698 741.803101,1023.101685 
	C743.127563,1016.909668 742.798767,1016.577393 736.384399,1017.708374 
	C733.761536,1018.170959 731.677795,1018.301697 732.310364,1014.424561 
	C733.652466,1006.199524 732.724487,1005.206177 724.278931,1005.393494 
	C724.494141,1003.768616 725.112305,1002.113708 724.802490,1000.656067 
	C724.438293,998.942383 723.051758,997.466980 722.523560,995.759888 
	C722.161072,994.588318 722.303772,993.154785 722.567932,991.912231 
	C724.211975,984.180725 724.225037,984.119690 716.558167,986.312683 
	C713.174866,987.280396 711.733337,986.634338 712.524109,982.813843 
	C713.192688,979.583801 713.522583,976.283752 714.002441,973.014648 
z"/>
<path fill="#D39DE1" opacity="1.000000" stroke="none" 
	d="
M1207.531372,0.999998 
	C1206.874756,12.535570 1205.775879,24.073801 1204.615479,35.605816 
	C1203.786743,43.839756 1202.805176,52.058628 1202.016235,60.296146 
	C1200.674683,74.304245 1199.341553,88.314285 1198.175537,102.337692 
	C1197.310303,112.744003 1196.729248,123.173775 1195.997070,133.591370 
	C1194.707397,151.937317 1193.375122,170.280289 1192.111938,188.628036 
	C1191.667603,195.081558 1191.277832,201.541794 1191.032837,208.005402 
	C1190.617554,218.961853 1190.351440,229.923874 1189.996948,240.882721 
	C1189.336304,261.302277 1188.665894,281.721527 1187.982056,302.140350 
	C1187.676392,311.267700 1187.112549,320.391815 1187.035889,329.520508 
	C1186.626221,378.303467 1186.209839,427.087036 1186.063232,475.871185 
	C1186.007812,494.327667 1186.624390,512.787170 1187.018066,531.243530 
	C1187.266113,542.871277 1187.619141,554.497498 1188.013184,566.121338 
	C1188.637817,584.542419 1189.285400,602.963135 1190.019531,621.380188 
	C1190.607788,636.137207 1191.286987,650.891174 1192.020264,665.641846 
	C1192.967285,684.692810 1193.960815,703.741760 1195.023071,722.786621 
	C1195.955444,739.505920 1196.979126,756.220398 1198.019775,772.933411 
	C1198.977783,788.318481 1199.959717,803.702515 1201.026001,819.080444 
	C1202.310059,837.594421 1203.662476,856.103821 1205.044312,874.610840 
	C1206.327148,891.791382 1207.663818,908.967896 1209.019043,926.142944 
	C1210.908203,950.084229 1213.193115,974.003174 1214.484985,997.976074 
	C1214.790405,1003.645203 1212.781982,1009.994385 1210.110718,1015.132996 
	C1206.475098,1022.127075 1207.241821,1028.882568 1208.184082,1035.968384 
	C1210.146240,1050.726074 1211.845947,1065.523438 1214.110107,1080.234131 
	C1215.215942,1087.418823 1217.159058,1094.496582 1219.064087,1101.530273 
	C1221.003906,1108.693237 1220.747314,1109.552612 1214.585938,1113.316284 
	C1213.453979,1114.007690 1212.109741,1115.979736 1212.343262,1117.032227 
	C1215.463745,1131.095337 1218.827393,1145.104980 1222.197754,1159.111694 
	C1222.543335,1160.548340 1223.322388,1161.880737 1223.950195,1164.036743 
	C1223.180664,1166.418213 1222.750000,1168.933838 1221.477051,1169.477539 
	C1215.052979,1172.220947 1208.381592,1174.379517 1201.869385,1176.928223 
	C1200.742676,1177.369263 1199.125610,1178.734985 1199.163818,1179.611328 
	C1199.365356,1184.233765 1196.810669,1185.253296 1192.870972,1186.191772 
	C1186.394409,1187.734375 1180.484131,1190.782471 1175.644775,1195.930664 
	C1173.046631,1193.309448 1170.314209,1192.712280 1166.968018,1193.144531 
	C1160.668945,1193.958008 1154.322144,1194.402344 1147.948975,1194.633789 
	C1146.743164,1191.744141 1145.274658,1189.312500 1144.492920,1186.677124 
	C1143.156128,1182.171143 1140.552124,1180.408936 1135.812134,1180.787598 
	C1134.624634,1180.882690 1132.693481,1178.763062 1132.037354,1177.255127 
	C1128.033569,1168.052734 1126.749146,1167.000000 1117.943604,1166.620605 
	C1117.308838,1164.163940 1117.248779,1161.685913 1116.030640,1160.094604 
	C1113.689209,1157.035889 1114.102905,1151.207031 1108.834595,1151.170410 
	C1104.681763,1151.141846 1103.488647,1149.145996 1102.314087,1145.870728 
	C1101.674438,1144.086792 1099.284668,1141.191528 1098.625488,1141.427368 
	C1093.122925,1143.396606 1091.979004,1139.955200 1090.941406,1135.611572 
	C1088.918823,1125.322632 1087.002686,1115.410767 1084.930664,1105.531860 
	C1084.573242,1103.827515 1083.876831,1101.130615 1082.785889,1100.818726 
	C1076.223511,1098.941772 1076.658203,1092.802979 1075.179443,1088.288696 
	C1073.143433,1082.073242 1072.459839,1075.415405 1071.182983,1068.949951 
	C1070.132446,1063.631226 1069.061768,1058.316528 1068.000000,1052.561768 
	C1068.267212,1044.750488 1068.423828,1037.371216 1068.840942,1030.006470 
	C1069.115967,1025.148682 1069.676147,1020.301086 1070.269287,1015.468628 
	C1071.051147,1009.098511 1072.802002,1002.730530 1072.667969,996.392761 
	C1072.475952,987.325317 1070.779907,978.300232 1070.041992,969.231384 
	C1068.872925,954.863525 1068.083984,940.464783 1066.917847,926.096680 
	C1065.391113,907.283752 1063.587524,888.493286 1062.029419,869.682739 
	C1060.921753,856.311096 1059.963257,842.926270 1059.044922,829.539978 
	C1057.649658,809.203247 1056.314087,788.862305 1055.015381,768.519165 
	C1053.969971,752.142273 1052.940308,735.763733 1052.041992,719.378235 
	C1050.952393,699.504089 1049.979858,679.623352 1049.010254,659.742798 
	C1048.299194,645.159790 1047.610596,630.575134 1047.027222,615.986511 
	C1046.290527,597.571960 1045.645752,579.153625 1045.010132,560.735229 
	C1044.626343,549.612427 1044.262573,538.487976 1044.019775,527.361450 
	C1043.623901,509.240845 1043.007324,491.117004 1043.058838,472.996124 
	C1043.240234,409.224274 1043.625854,345.452850 1044.036133,281.681946 
	C1044.113159,269.722717 1044.609497,257.764893 1045.001709,245.809326 
	C1045.627930,226.724289 1046.354858,207.642563 1046.989258,188.557770 
	C1047.375610,176.935135 1047.611694,165.307373 1048.024170,153.685776 
	C1048.259399,147.055832 1048.648071,140.429382 1049.081055,133.808762 
	C1050.357056,114.298347 1051.691650,94.791763 1052.999146,75.283394 
	C1053.708496,64.698845 1054.277588,54.102879 1055.145752,43.531437 
	C1056.310913,29.344467 1057.704468,15.176258 1059.000000,0.999996 
	C1108.354248,1.000000 1157.708496,1.000000 1207.531372,0.999998 
z"/>
<path fill="#DBAAE4" opacity="1.000000" stroke="none" 
	d="
M1058.531250,0.999996 
	C1057.704468,15.176258 1056.310913,29.344467 1055.145752,43.531437 
	C1054.277588,54.102879 1053.708496,64.698845 1052.999146,75.283394 
	C1051.691650,94.791763 1050.357056,114.298347 1049.081055,133.808762 
	C1048.648071,140.429382 1048.259399,147.055832 1048.024170,153.685776 
	C1047.611694,165.307373 1047.375610,176.935135 1046.989258,188.557770 
	C1046.354858,207.642563 1045.627930,226.724289 1045.001709,245.809326 
	C1044.609497,257.764893 1044.113159,269.722717 1044.036133,281.681946 
	C1043.625854,345.452850 1043.240234,409.224274 1043.058838,472.996124 
	C1043.007324,491.117004 1043.623901,509.240845 1044.019775,527.361450 
	C1044.262573,538.487976 1044.626343,549.612427 1045.010132,560.735229 
	C1045.645752,579.153625 1046.290527,597.571960 1047.027222,615.986511 
	C1047.610596,630.575134 1048.299194,645.159790 1049.010254,659.742798 
	C1049.979858,679.623352 1050.952393,699.504089 1052.041992,719.378235 
	C1052.940308,735.763733 1053.969971,752.142273 1055.015381,768.519165 
	C1056.314087,788.862305 1057.649658,809.203247 1059.044922,829.539978 
	C1059.963257,842.926270 1060.921753,856.311096 1062.029419,869.682739 
	C1063.587524,888.493286 1065.391113,907.283752 1066.917847,926.096680 
	C1068.083984,940.464783 1068.872925,954.863525 1070.041992,969.231384 
	C1070.779907,978.300232 1072.475952,987.325317 1072.667969,996.392761 
	C1072.802002,1002.730530 1071.051147,1009.098511 1070.269287,1015.468628 
	C1069.676147,1020.301086 1069.115967,1025.148682 1068.840942,1030.006470 
	C1068.423828,1037.371216 1068.267212,1044.750488 1067.624634,1052.570312 
	C1061.183105,1056.495605 1054.972290,1059.747314 1049.082642,1063.502686 
	C1038.619141,1070.174194 1028.350220,1077.150879 1017.670227,1084.147705 
	C1011.269897,1086.290894 1005.199341,1088.286499 998.735474,1090.411255 
	C997.903992,1085.056885 995.255920,1085.571899 992.199280,1087.403564 
	C990.786987,1088.249756 989.399048,1089.136597 987.587646,1090.004028 
	C982.083923,1090.680176 976.992676,1091.357178 971.901428,1092.034180 
	C972.122864,1091.476685 972.344360,1090.919312 972.565857,1090.361938 
	C970.620300,1089.116211 968.184143,1086.419189 966.816162,1086.881714 
	C961.554504,1088.660889 958.018127,1088.265015 957.232239,1081.489380 
	C950.315613,1083.307983 944.002502,1084.534912 938.021912,1086.686401 
	C933.752319,1088.222290 930.737244,1088.948242 930.219116,1083.432617 
	C924.560425,1084.679199 919.282104,1085.842041 913.738708,1086.720215 
	C912.159058,1078.040649 912.159058,1078.040649 905.992676,1079.002930 
	C906.460388,1074.746338 906.769653,1070.611328 910.023071,1067.082764 
	C911.516235,1065.463379 911.758545,1062.496826 912.130554,1060.074097 
	C913.207703,1053.059692 913.995850,1046.001343 915.052612,1038.983521 
	C915.315796,1037.235840 915.685059,1035.083374 916.832336,1033.965820 
	C920.752625,1030.147217 921.517883,1025.901733 921.227417,1020.501709 
	C920.903259,1014.472900 923.088989,1008.317810 922.833801,1002.274658 
	C922.376648,991.445679 923.602234,981.049377 925.577148,970.356079 
	C927.494995,959.971130 926.232849,948.918823 925.726868,938.189758 
	C925.259583,928.280273 923.872375,918.416870 923.016663,908.522278 
	C921.661072,892.847717 920.375610,877.166809 919.128967,861.483154 
	C918.354065,851.735291 917.716309,841.976501 916.997803,832.224060 
	C915.695435,814.545105 914.360718,796.868469 913.077942,779.188110 
	C912.657898,773.399170 912.315796,767.603760 912.008545,761.807556 
	C910.981384,742.426453 910.006470,723.042603 908.971191,703.661987 
	C908.352112,692.071228 907.586853,680.488098 907.012878,668.895264 
	C905.954407,647.516174 904.955750,626.133972 903.994324,604.750244 
	C903.278564,588.831787 902.571045,572.912048 902.021301,556.987305 
	C901.264648,535.070679 900.644958,513.149231 899.996643,491.229004 
	C899.633118,478.937103 899.183105,466.645264 899.028259,454.350159 
	C898.611145,421.229340 898.383301,388.106110 897.964966,354.985260 
	C897.845459,345.522430 897.006470,336.062775 897.059998,326.604797 
	C897.232422,296.148132 897.612610,265.692200 898.025269,235.237488 
	C898.216614,221.109741 898.596863,206.983368 899.018860,192.860184 
	C899.619019,172.771500 900.273804,152.683990 901.024292,132.600403 
	C901.588135,117.508812 902.269409,102.420715 903.024963,87.337395 
	C903.954224,68.784630 904.974121,50.236122 906.035156,31.690367 
	C906.603088,21.763626 907.339539,11.846528 908.000000,1.462540 
	C958.020935,1.000000 1008.041809,1.000000 1058.531250,0.999996 
z"/>
<path fill="#BC97E2" opacity="1.000000" stroke="none" 
	d="
M1176.000000,1196.009766 
	C1180.484131,1190.782471 1186.394409,1187.734375 1192.870972,1186.191772 
	C1196.810669,1185.253296 1199.365356,1184.233765 1199.163818,1179.611328 
	C1199.125610,1178.734985 1200.742676,1177.369263 1201.869385,1176.928223 
	C1208.381592,1174.379517 1215.052979,1172.220947 1221.477051,1169.477539 
	C1222.750000,1168.933838 1223.180664,1166.418213 1224.000000,1164.403564 
	C1227.617188,1164.409790 1231.260132,1165.324097 1234.846191,1165.138550 
	C1243.108887,1164.710938 1251.337402,1163.664185 1259.591919,1163.025269 
	C1270.002808,1162.219849 1280.420044,1161.140991 1290.845703,1160.997559 
	C1298.354492,1160.894043 1306.331055,1159.053833 1313.040894,1165.109985 
	C1314.831543,1166.726196 1318.349487,1166.887573 1321.084229,1166.921387 
	C1334.911865,1167.092041 1348.748413,1166.746948 1362.570923,1167.062134 
	C1381.162598,1167.485962 1399.739136,1168.647339 1418.331177,1168.956787 
	C1451.614014,1169.511108 1484.903809,1169.887817 1518.190430,1169.878540 
	C1531.611206,1169.874878 1545.047729,1168.883789 1558.448242,1167.936646 
	C1573.311279,1166.886108 1588.145386,1165.414673 1602.984863,1164.048096 
	C1617.165527,1162.742554 1631.378052,1161.663940 1645.502686,1159.895142 
	C1664.720947,1157.488770 1683.929810,1154.886475 1703.031372,1151.701172 
	C1726.235474,1147.832031 1749.388306,1143.586548 1772.442017,1138.906616 
	C1791.464355,1135.045044 1810.456543,1130.861328 1829.202637,1125.850342 
	C1865.143188,1116.242920 1900.996582,1106.278198 1936.695679,1095.811646 
	C1958.068237,1089.545532 1979.079712,1082.047607 2000.626709,1075.051636 
	C2001.000000,1140.020874 2001.000000,1205.041870 2000.600830,1270.543213 
	C1981.451904,1275.351440 1962.738159,1279.844116 1943.942627,1283.962646 
	C1923.376831,1288.468994 1902.800537,1292.978027 1882.109741,1296.849731 
	C1858.023315,1301.356812 1833.829102,1305.304688 1809.641113,1309.246460 
	C1792.494019,1312.040771 1775.315430,1314.699585 1758.085815,1316.913086 
	C1739.705811,1319.274292 1721.255615,1321.098755 1702.824707,1323.049438 
	C1686.534058,1324.773315 1670.245972,1326.567505 1653.923096,1327.925659 
	C1638.404541,1329.216797 1622.853149,1330.216309 1607.296875,1330.922974 
	C1587.229858,1331.834351 1567.146484,1332.753540 1547.065063,1332.887573 
	C1524.120728,1333.040649 1501.169922,1332.388428 1478.223755,1331.979614 
	C1466.933228,1331.778442 1455.639526,1331.496460 1444.360474,1330.967407 
	C1425.979614,1330.105591 1407.608398,1329.038330 1389.235840,1328.006958 
	C1372.025269,1327.041016 1354.829346,1325.711426 1337.607056,1325.086670 
	C1318.669922,1324.399658 1299.710327,1324.306519 1280.759521,1324.037720 
	C1278.465698,1324.005005 1276.148560,1324.798096 1273.869263,1324.681152 
	C1257.908203,1323.863037 1241.954224,1322.906372 1225.851807,1321.676025 
	C1221.369995,1312.504517 1216.974731,1303.672852 1214.886353,1293.568604 
	C1216.637817,1293.316040 1217.754028,1293.006348 1218.865723,1293.021973 
	C1222.635742,1293.074585 1223.694092,1290.882568 1222.705200,1287.822144 
	C1220.200195,1280.069824 1217.638428,1272.143799 1210.079590,1267.655396 
	C1202.454590,1263.127808 1196.993408,1257.218872 1195.533691,1248.188110 
	C1195.457031,1247.713989 1195.099121,1247.292236 1194.925415,1246.826172 
	C1188.613037,1229.888916 1182.306885,1212.949219 1176.000000,1196.009766 
z"/>
<path fill="#999FE8" opacity="1.000000" stroke="none" 
	d="
M2001.000000,1560.531372 
	C1988.811157,1562.226074 1976.622559,1563.454224 1964.433350,1564.677246 
	C1956.687500,1565.454468 1948.941772,1566.234009 1941.194214,1566.994629 
	C1928.012695,1568.288940 1914.834839,1569.625977 1901.645508,1570.836304 
	C1892.734375,1571.653931 1883.805908,1572.282959 1874.885376,1572.999878 
	C1858.703613,1574.300171 1842.523438,1575.620239 1826.339722,1576.895508 
	C1821.050537,1577.312378 1815.756714,1577.703735 1810.457886,1577.954956 
	C1795.203735,1578.678101 1779.946899,1579.348877 1764.689209,1579.993164 
	C1748.100586,1580.693848 1731.510742,1581.362061 1714.919678,1582.004150 
	C1705.293213,1582.376831 1695.665894,1582.865723 1686.035278,1582.966064 
	C1646.243286,1583.380615 1606.449341,1583.950562 1566.657104,1583.886475 
	C1545.066650,1583.851685 1523.474731,1582.749390 1501.890015,1581.950684 
	C1489.126221,1581.478394 1476.369141,1580.758667 1463.619995,1579.972290 
	C1443.267822,1578.717285 1422.893921,1577.662842 1402.588257,1575.859741 
	C1387.271973,1574.499512 1372.095093,1571.265381 1356.769531,1570.400269 
	C1341.535278,1569.540405 1326.192871,1570.603638 1310.897705,1570.809570 
	C1305.902466,1570.876709 1300.783936,1571.625244 1295.934570,1570.804565 
	C1282.462280,1568.524780 1269.216553,1570.864380 1255.891479,1571.817871 
	C1251.558105,1572.127930 1247.695679,1571.418091 1243.444336,1569.698120 
	C1238.813110,1567.824219 1233.096069,1568.175781 1227.873657,1568.321411 
	C1218.512939,1568.582153 1209.150269,1569.215942 1199.821533,1570.060303 
	C1189.109985,1571.030029 1178.443481,1572.493286 1167.734985,1573.504761 
	C1165.813599,1573.686279 1162.853394,1573.383667 1161.973022,1572.156616 
	C1158.984497,1567.990601 1155.003540,1568.723877 1151.160645,1569.237305 
	C1142.790405,1570.355225 1134.474731,1571.874756 1126.117920,1573.102417 
	C1124.377563,1573.358032 1122.555908,1573.060669 1120.385864,1573.006592 
	C1118.305908,1560.875488 1117.135376,1548.653687 1114.794067,1536.660278 
	C1111.335693,1518.944336 1107.044922,1501.390869 1103.358765,1483.213623 
	C1105.706055,1478.936279 1108.765869,1477.830811 1113.097046,1477.838501 
	C1118.866943,1477.848755 1124.908691,1477.958984 1128.901245,1471.922119 
	C1130.061157,1470.168335 1133.515869,1469.949585 1135.902100,1468.986084 
	C1140.223755,1467.240967 1146.252563,1470.040283 1149.105591,1465.033081 
	C1151.283813,1461.209839 1154.056885,1461.073486 1157.701660,1460.871094 
	C1161.538574,1460.658081 1167.164551,1460.703491 1168.756470,1458.394165 
	C1172.576050,1452.852783 1177.315552,1453.016968 1182.708984,1452.888916 
	C1184.976074,1452.835205 1187.315308,1451.775635 1189.438599,1450.782227 
	C1191.822266,1449.667114 1193.848145,1447.512207 1196.303101,1446.891357 
	C1199.620728,1446.052734 1203.223022,1446.410645 1206.654175,1445.915771 
	C1208.092773,1445.708130 1210.500366,1444.759644 1210.598267,1443.927856 
	C1211.227051,1438.584473 1214.842529,1438.825806 1218.656128,1438.979004 
	C1221.317993,1439.085938 1223.989868,1438.930176 1226.653442,1439.014526 
	C1229.486938,1439.104126 1231.163696,1438.085571 1231.468506,1435.000000 
	C1242.772095,1436.289795 1253.522339,1433.973633 1264.587036,1435.572021 
	C1280.272461,1437.838013 1296.361328,1437.283691 1312.274170,1438.010498 
	C1332.987793,1438.956421 1353.703979,1439.865967 1374.407837,1440.995850 
	C1396.588867,1442.206055 1418.753296,1443.721313 1440.932129,1444.973511 
	C1455.010864,1445.768555 1469.098511,1446.442383 1483.190063,1446.957275 
	C1496.641846,1447.448608 1510.104980,1447.981445 1523.560913,1447.931396 
	C1548.681885,1447.837769 1573.802368,1447.388062 1598.921265,1446.979858 
	C1611.547729,1446.774780 1624.174683,1446.445190 1636.793823,1445.973633 
	C1651.217651,1445.434570 1665.643555,1444.842651 1680.050171,1443.970215 
	C1699.235107,1442.808228 1718.414673,1441.507446 1737.573730,1439.980225 
	C1755.892822,1438.520020 1774.192383,1436.791138 1792.482666,1434.998535 
	C1808.463745,1433.432373 1824.450684,1431.855835 1840.379761,1429.846191 
	C1862.053345,1427.111816 1883.701172,1424.141602 1905.310303,1420.937012 
	C1925.453369,1417.949585 1945.524292,1414.479004 1965.640503,1411.307251 
	C1977.413208,1409.451050 1989.212646,1407.763550 2001.000000,1406.000000 
	C2001.000000,1457.354248 2001.000000,1508.708496 2001.000000,1560.531372 
z"/>
<path fill="#A9B3E9" opacity="1.000000" stroke="none" 
	d="
M850.004333,1480.993530 
	C829.093506,1481.662354 808.174622,1482.146606 787.274597,1483.062134 
	C772.215454,1483.721802 757.193420,1485.322021 742.132324,1485.812988 
	C730.943909,1486.177734 719.782593,1486.779175 708.751282,1482.389893 
	C702.181824,1479.776123 694.448669,1480.151978 687.269409,1478.993164 
	C668.312927,1475.933594 649.054382,1474.046631 630.486572,1469.408813 
	C574.114868,1455.329102 518.053162,1440.013916 461.794250,1425.475708 
	C408.414764,1411.681641 355.004150,1397.996704 301.484528,1384.759766 
	C258.957336,1374.241699 216.329041,1364.099243 173.592087,1354.471436 
	C127.975357,1344.194824 82.185715,1334.683838 36.455002,1324.916138 
	C24.952383,1322.459229 13.386728,1320.297363 1.425020,1318.000000 
	C1.000000,1275.979126 1.000000,1233.958130 1.430681,1191.468628 
	C3.510534,1191.146240 5.195530,1191.123779 6.803362,1191.464966 
	C23.024414,1194.906372 39.251179,1198.324341 55.441338,1201.907227 
	C106.128166,1213.124268 156.844025,1224.215820 207.461655,1235.738037 
	C240.637955,1243.289917 273.729553,1251.239624 306.740479,1259.485962 
	C350.079437,1270.312134 393.340240,1281.457886 436.564667,1292.734497 
	C491.034973,1306.945068 545.372131,1321.670166 599.898926,1335.657837 
	C618.828796,1340.514038 638.038757,1344.547607 657.332825,1347.630005 
	C672.991943,1350.131836 688.959778,1350.753174 704.805725,1352.020630 
	C726.697144,1353.771362 748.582031,1356.224609 770.508118,1356.736938 
	C790.683655,1357.208496 810.912170,1357.983154 831.149841,1356.188965 
	C845.355774,1354.929443 859.709717,1355.340088 873.948120,1355.375488 
	C873.355713,1357.598877 872.812622,1359.452026 872.065979,1362.000000 
	C875.380310,1362.000000 877.998779,1361.998535 880.617249,1362.000244 
	C888.184021,1362.005127 888.266663,1362.027100 886.389282,1369.234009 
	C885.469238,1372.765747 886.511230,1374.233154 890.204407,1374.032104 
	C893.185608,1373.869629 896.229370,1373.703857 899.152588,1374.149170 
	C900.469116,1374.349731 902.750854,1376.428955 902.566895,1376.985352 
	C900.855286,1382.162598 903.957764,1382.144653 907.466675,1382.015991 
	C909.789307,1381.930786 912.128357,1382.140503 914.440918,1381.965454 
	C917.426208,1381.739380 919.148987,1382.532959 919.223083,1385.932739 
	C919.334656,1391.054077 922.708984,1391.593018 926.772034,1390.831177 
	C927.909241,1390.618042 929.015503,1390.193604 930.158325,1390.064697 
	C936.266479,1389.374878 937.822876,1390.774048 937.956665,1397.346191 
	C930.753174,1407.219482 923.799194,1416.908569 916.388000,1426.234375 
	C906.240540,1439.003662 894.447876,1450.189331 881.263062,1459.762085 
	C871.075439,1467.158813 860.440430,1473.939209 850.004333,1480.993530 
z"/>
<path fill="#DDC8EB" opacity="1.000000" stroke="none" 
	d="
M713.643860,973.060425 
	C713.522583,976.283752 713.192688,979.583801 712.524109,982.813843 
	C711.733337,986.634338 713.174866,987.280396 716.558167,986.312683 
	C724.225037,984.119690 724.211975,984.180725 722.567932,991.912231 
	C722.303772,993.154785 722.161072,994.588318 722.523560,995.759888 
	C723.051758,997.466980 724.438293,998.942383 724.802490,1000.656067 
	C725.112305,1002.113708 724.494141,1003.768616 724.278931,1005.393494 
	C732.724487,1005.206177 733.652466,1006.199524 732.310364,1014.424561 
	C731.677795,1018.301697 733.761536,1018.170959 736.384399,1017.708374 
	C742.798767,1016.577393 743.127563,1016.909668 741.803101,1023.101685 
	C740.842957,1027.590698 741.570740,1028.216675 746.306213,1027.445435 
	C748.001099,1027.169312 749.778687,1027.401245 751.549255,1027.401245 
	C750.651917,1038.378662 750.651917,1038.378662 758.782593,1037.285156 
	C759.359741,1041.858643 760.224121,1046.446045 760.430481,1051.062866 
	C760.593872,1054.720093 763.098633,1054.258545 764.947571,1053.859863 
	C769.119324,1052.960449 770.587524,1053.730957 769.219788,1058.256348 
	C768.110535,1061.926514 769.978210,1063.904175 773.701416,1062.785034 
	C778.139160,1061.451050 778.913574,1062.747314 778.256348,1067.019165 
	C778.037720,1068.440674 780.440063,1071.731079 781.341553,1071.623657 
	C787.639526,1070.874268 788.072144,1076.109375 788.591431,1079.454590 
	C789.240112,1083.633301 791.002808,1084.150635 794.414307,1084.134888 
	C795.563049,1084.129639 796.718140,1085.499756 797.789612,1086.938232 
	C795.669373,1090.612183 794.113647,1095.555298 791.499817,1096.198608 
	C783.573181,1098.149292 780.534851,1104.725220 775.666260,1109.686646 
	C773.669495,1111.721558 770.526489,1112.663086 767.847656,1113.986206 
	C765.960754,1114.918457 763.673767,1115.281494 762.100769,1116.558105 
	C758.883667,1119.169189 756.261902,1122.542725 752.944702,1124.992554 
	C750.465027,1126.823730 747.352112,1128.565063 744.392578,1128.813110 
	C738.839661,1129.278564 734.175598,1130.896362 729.863892,1134.477905 
	C726.140808,1137.570557 721.981201,1139.249268 716.559570,1138.378662 
	C712.766479,1137.769653 708.013062,1138.539429 704.704468,1140.451416 
	C697.343445,1144.705566 689.637512,1145.126953 681.598083,1144.930542 
	C678.022949,1144.843140 674.323242,1144.570312 670.880554,1145.312134 
	C659.331482,1147.800537 647.742371,1149.132202 635.944214,1148.000122 
	C625.726379,1147.019653 615.506409,1146.050781 605.303101,1144.932983 
	C598.725159,1144.212402 592.079651,1143.675659 585.632385,1142.280151 
	C569.264282,1138.737427 552.914429,1135.055176 536.695129,1130.891479 
	C502.906128,1122.217773 469.277008,1112.916260 435.453796,1104.381592 
	C379.568878,1090.280151 323.622162,1076.417969 267.625244,1062.767822 
	C227.305054,1052.938965 186.907837,1043.413940 146.458572,1034.129883 
	C107.648552,1025.221924 68.743881,1016.722778 29.842960,1008.217102 
	C20.304409,1006.131531 10.618274,1004.720947 1.000000,1003.000000 
	C1.000000,958.979126 1.000000,914.958191 0.999997,870.468628 
	C13.985600,872.665466 27.004646,875.178894 39.950405,878.025574 
	C75.910393,885.932983 111.884560,893.784485 147.770370,902.018738 
	C194.346954,912.706238 240.904907,923.487854 287.359650,934.690247 
	C349.176025,949.596924 410.905304,964.866760 472.631012,980.146301 
	C499.065979,986.690063 525.345398,993.864807 551.799011,1000.329224 
	C564.306213,1003.385498 576.970520,1006.418335 590.044189,1004.941406 
	C595.757629,1004.295898 601.368408,1002.400757 607.077148,1002.120972 
	C621.269836,1001.425232 635.525269,1001.807861 649.689636,1000.815918 
	C658.044739,1000.230835 666.307068,998.003601 674.548279,996.223755 
	C679.890625,995.069885 685.255066,993.744629 690.341797,991.796753 
	C692.874817,990.826843 696.091614,988.660095 696.757324,986.380127 
	C698.453735,980.570801 701.812561,977.325378 707.416626,975.748962 
	C709.459045,975.174438 711.333923,974.004456 713.643860,973.060425 
z"/>
<path fill="#AA9AE5" opacity="1.000000" stroke="none" 
	d="
M2001.000000,1405.531372 
	C1989.212646,1407.763550 1977.413208,1409.451050 1965.640503,1411.307251 
	C1945.524292,1414.479004 1925.453369,1417.949585 1905.310303,1420.937012 
	C1883.701172,1424.141602 1862.053345,1427.111816 1840.379761,1429.846191 
	C1824.450684,1431.855835 1808.463745,1433.432373 1792.482666,1434.998535 
	C1774.192383,1436.791138 1755.892822,1438.520020 1737.573730,1439.980225 
	C1718.414673,1441.507446 1699.235107,1442.808228 1680.050171,1443.970215 
	C1665.643555,1444.842651 1651.217651,1445.434570 1636.793823,1445.973633 
	C1624.174683,1446.445190 1611.547729,1446.774780 1598.921265,1446.979858 
	C1573.802368,1447.388062 1548.681885,1447.837769 1523.560913,1447.931396 
	C1510.104980,1447.981445 1496.641846,1447.448608 1483.190063,1446.957275 
	C1469.098511,1446.442383 1455.010864,1445.768555 1440.932129,1444.973511 
	C1418.753296,1443.721313 1396.588867,1442.206055 1374.407837,1440.995850 
	C1353.703979,1439.865967 1332.987793,1438.956421 1312.274170,1438.010498 
	C1296.361328,1437.283691 1280.272461,1437.838013 1264.587036,1435.572021 
	C1253.522339,1433.973633 1242.772095,1436.289795 1231.461182,1434.634521 
	C1230.839355,1433.629761 1230.877197,1432.855469 1230.520752,1432.371216 
	C1223.572754,1422.931396 1216.410034,1413.644287 1209.661865,1404.064697 
	C1206.035767,1398.917114 1201.280884,1396.415405 1195.392334,1397.551025 
	C1191.106567,1398.377441 1188.886963,1396.951904 1186.794312,1393.699463 
	C1182.958008,1387.737305 1178.938354,1381.893311 1175.140991,1375.675293 
	C1175.476074,1374.721313 1175.961792,1374.005737 1175.807617,1373.476685 
	C1174.520752,1369.059082 1176.534058,1367.674438 1180.612183,1367.986450 
	C1181.768433,1368.074951 1182.939087,1367.954956 1184.099854,1368.006226 
	C1188.030396,1368.179321 1189.508057,1366.809570 1188.459839,1362.593140 
	C1186.968628,1356.594849 1187.703613,1355.891235 1194.180908,1354.943237 
	C1199.328979,1354.189941 1200.742920,1352.292725 1199.819336,1347.184326 
	C1199.407715,1344.908203 1198.847290,1342.656860 1198.298584,1340.407959 
	C1197.407227,1336.754028 1198.168823,1334.662109 1202.576416,1334.883545 
	C1204.012573,1334.955811 1205.516968,1333.666504 1207.362305,1332.986328 
	C1211.631958,1327.052612 1217.659912,1326.170166 1224.042480,1325.751709 
	C1224.773315,1325.703857 1225.349976,1323.303589 1225.998047,1321.994019 
	C1241.954224,1322.906372 1257.908203,1323.863037 1273.869263,1324.681152 
	C1276.148560,1324.798096 1278.465698,1324.005005 1280.759521,1324.037720 
	C1299.710327,1324.306519 1318.669922,1324.399658 1337.607056,1325.086670 
	C1354.829346,1325.711426 1372.025269,1327.041016 1389.235840,1328.006958 
	C1407.608398,1329.038330 1425.979614,1330.105591 1444.360474,1330.967407 
	C1455.639526,1331.496460 1466.933228,1331.778442 1478.223755,1331.979614 
	C1501.169922,1332.388428 1524.120728,1333.040649 1547.065063,1332.887573 
	C1567.146484,1332.753540 1587.229858,1331.834351 1607.296875,1330.922974 
	C1622.853149,1330.216309 1638.404541,1329.216797 1653.923096,1327.925659 
	C1670.245972,1326.567505 1686.534058,1324.773315 1702.824707,1323.049438 
	C1721.255615,1321.098755 1739.705811,1319.274292 1758.085815,1316.913086 
	C1775.315430,1314.699585 1792.494019,1312.040771 1809.641113,1309.246460 
	C1833.829102,1305.304688 1858.023315,1301.356812 1882.109741,1296.849731 
	C1902.800537,1292.978027 1923.376831,1288.468994 1943.942627,1283.962646 
	C1962.738159,1279.844116 1981.451904,1275.351440 2000.600830,1271.011963 
	C2001.000000,1315.687622 2001.000000,1360.375122 2001.000000,1405.531372 
z"/>
<path fill="#BAB9E9" opacity="1.000000" stroke="none" 
	d="
M873.997559,1355.004883 
	C859.709717,1355.340088 845.355774,1354.929443 831.149841,1356.188965 
	C810.912170,1357.983154 790.683655,1357.208496 770.508118,1356.736938 
	C748.582031,1356.224609 726.697144,1353.771362 704.805725,1352.020630 
	C688.959778,1350.753174 672.991943,1350.131836 657.332825,1347.630005 
	C638.038757,1344.547607 618.828796,1340.514038 599.898926,1335.657837 
	C545.372131,1321.670166 491.034973,1306.945068 436.564667,1292.734497 
	C393.340240,1281.457886 350.079437,1270.312134 306.740479,1259.485962 
	C273.729553,1251.239624 240.637955,1243.289917 207.461655,1235.738037 
	C156.844025,1224.215820 106.128166,1213.124268 55.441338,1201.907227 
	C39.251179,1198.324341 23.024414,1194.906372 6.803362,1191.464966 
	C5.195530,1191.123779 3.510534,1191.146240 1.430681,1191.000000 
	C1.000000,1165.645752 1.000000,1140.291504 1.391135,1114.524902 
	C22.216265,1118.476685 42.691135,1122.659058 63.076286,1127.240601 
	C116.332794,1139.209839 169.596558,1151.153442 222.766510,1163.498901 
	C257.536652,1171.572144 292.192596,1180.151245 326.818634,1188.827393 
	C363.229187,1197.950439 399.568970,1207.360107 435.893066,1216.823242 
	C487.645020,1230.306030 539.255188,1244.349243 591.136108,1257.311646 
	C609.228760,1261.832153 627.913086,1264.061768 646.388733,1266.943481 
	C657.333557,1268.650391 668.391968,1269.647583 679.411865,1270.848022 
	C686.311646,1271.599487 693.223938,1272.354736 700.151001,1272.703247 
	C706.399902,1273.017578 712.676636,1272.796997 718.940979,1272.783569 
	C726.757080,1272.766846 734.580994,1272.925781 742.387024,1272.628540 
	C749.987854,1272.339233 757.609802,1270.845093 765.147644,1271.255127 
	C770.556274,1271.549316 775.132874,1270.209229 780.035828,1268.669189 
	C783.567261,1267.559814 787.477722,1267.573730 791.234436,1267.289551 
	C794.478394,1267.044312 797.743958,1267.085449 801.181396,1267.328369 
	C802.413574,1268.408569 803.393555,1269.674561 804.526611,1269.830811 
	C813.077393,1271.010620 821.664856,1271.921631 830.223450,1273.049561 
	C831.738708,1273.249146 833.212708,1273.979248 834.634521,1274.622192 
	C836.974976,1275.680298 839.159790,1277.511353 841.582458,1277.877686 
	C848.528198,1278.928101 855.562500,1279.387207 862.555664,1280.137695 
	C863.352295,1280.223022 864.094421,1280.732422 864.885925,1280.962646 
	C871.821106,1282.980591 878.649963,1285.723999 885.730347,1286.787231 
	C893.701233,1287.984009 901.900208,1287.661621 909.950256,1288.369629 
	C901.741638,1306.925293 893.556885,1325.099854 885.465698,1343.315918 
	C884.682678,1345.078857 884.479614,1347.099121 883.655884,1349.043457 
	C880.202087,1351.059692 877.099854,1353.032227 873.997559,1355.004883 
z"/>
<path fill="#C8C0EA" opacity="1.000000" stroke="none" 
	d="
M801.000000,1267.000000 
	C797.743958,1267.085449 794.478394,1267.044312 791.234436,1267.289551 
	C787.477722,1267.573730 783.567261,1267.559814 780.035828,1268.669189 
	C775.132874,1270.209229 770.556274,1271.549316 765.147644,1271.255127 
	C757.609802,1270.845093 749.987854,1272.339233 742.387024,1272.628540 
	C734.580994,1272.925781 726.757080,1272.766846 718.940979,1272.783569 
	C712.676636,1272.796997 706.399902,1273.017578 700.151001,1272.703247 
	C693.223938,1272.354736 686.311646,1271.599487 679.411865,1270.848022 
	C668.391968,1269.647583 657.333557,1268.650391 646.388733,1266.943481 
	C627.913086,1264.061768 609.228760,1261.832153 591.136108,1257.311646 
	C539.255188,1244.349243 487.645020,1230.306030 435.893066,1216.823242 
	C399.568970,1207.360107 363.229187,1197.950439 326.818634,1188.827393 
	C292.192596,1180.151245 257.536652,1171.572144 222.766510,1163.498901 
	C169.596558,1151.153442 116.332794,1139.209839 63.076286,1127.240601 
	C42.691135,1122.659058 22.216265,1118.476685 1.391135,1114.056274 
	C1.000000,1088.312378 1.000000,1062.624878 1.432709,1036.468628 
	C3.514421,1036.146118 5.203134,1036.111938 6.806661,1036.464844 
	C61.068512,1048.406860 115.372231,1060.165039 169.560211,1072.434204 
	C207.757370,1081.082886 245.855209,1090.190674 283.889282,1099.533569 
	C326.626617,1110.031738 369.283600,1120.864624 411.900177,1131.844604 
	C461.428345,1144.605469 510.794373,1158.002686 560.390259,1170.490479 
	C585.305115,1176.763794 610.546448,1181.760864 635.695801,1187.071777 
	C644.912354,1189.018066 654.309814,1190.090942 663.588440,1191.763550 
	C676.398376,1194.072998 689.136719,1196.799438 701.978516,1198.903198 
	C709.149292,1200.078003 716.476257,1200.271851 723.716003,1201.062012 
	C729.126343,1201.652588 734.535950,1202.338379 739.896118,1203.268799 
	C743.721252,1203.932617 747.440247,1205.188232 751.250366,1205.964722 
	C754.457581,1206.618286 757.774048,1206.759644 760.960693,1207.485474 
	C766.936218,1208.846680 772.775818,1211.065186 778.811584,1211.840454 
	C788.145264,1213.039673 797.596313,1213.326416 806.998779,1214.332886 
	C807.001282,1215.109497 807.002625,1215.553223 807.003906,1216.247803 
	C807.004211,1216.665649 807.004578,1216.832886 806.741821,1217.211182 
	C803.654114,1222.281494 800.829468,1227.140747 797.706665,1232.155762 
	C796.215515,1233.459473 794.757874,1234.439331 793.896362,1235.797485 
	C792.806335,1237.515625 792.201599,1239.541748 791.387573,1241.435059 
	C793.358215,1241.957153 795.321167,1242.511597 797.302734,1242.988403 
	C798.348633,1243.240234 799.427124,1243.356445 801.202698,1243.652466 
	C797.654480,1249.420898 794.425598,1254.670288 790.960388,1260.303711 
	C795.742371,1260.925659 799.872437,1261.462891 803.961792,1262.329834 
	C802.947449,1264.106445 801.973755,1265.553223 801.000000,1267.000000 
z"/>
<path fill="#D3BEE9" opacity="1.000000" stroke="none" 
	d="
M806.997559,1214.000000 
	C797.596313,1213.326416 788.145264,1213.039673 778.811584,1211.840454 
	C772.775818,1211.065186 766.936218,1208.846680 760.960693,1207.485474 
	C757.774048,1206.759644 754.457581,1206.618286 751.250366,1205.964722 
	C747.440247,1205.188232 743.721252,1203.932617 739.896118,1203.268799 
	C734.535950,1202.338379 729.126343,1201.652588 723.716003,1201.062012 
	C716.476257,1200.271851 709.149292,1200.078003 701.978516,1198.903198 
	C689.136719,1196.799438 676.398376,1194.072998 663.588440,1191.763550 
	C654.309814,1190.090942 644.912354,1189.018066 635.695801,1187.071777 
	C610.546448,1181.760864 585.305115,1176.763794 560.390259,1170.490479 
	C510.794373,1158.002686 461.428345,1144.605469 411.900177,1131.844604 
	C369.283600,1120.864624 326.626617,1110.031738 283.889282,1099.533569 
	C245.855209,1090.190674 207.757370,1081.082886 169.560211,1072.434204 
	C115.372231,1060.165039 61.068512,1048.406860 6.806661,1036.464844 
	C5.203134,1036.111938 3.514421,1036.146118 1.432709,1036.000000 
	C1.000000,1025.312500 1.000000,1014.624878 1.000000,1003.468628 
	C10.618274,1004.720947 20.304409,1006.131531 29.842960,1008.217102 
	C68.743881,1016.722778 107.648552,1025.221924 146.458572,1034.129883 
	C186.907837,1043.413940 227.305054,1052.938965 267.625244,1062.767822 
	C323.622162,1076.417969 379.568878,1090.280151 435.453796,1104.381592 
	C469.277008,1112.916260 502.906128,1122.217773 536.695129,1130.891479 
	C552.914429,1135.055176 569.264282,1138.737427 585.632385,1142.280151 
	C592.079651,1143.675659 598.725159,1144.212402 605.303101,1144.932983 
	C615.506409,1146.050781 625.726379,1147.019653 635.944214,1148.000122 
	C647.742371,1149.132202 659.331482,1147.800537 670.880554,1145.312134 
	C674.323242,1144.570312 678.022949,1144.843140 681.598083,1144.930542 
	C689.637512,1145.126953 697.343445,1144.705566 704.704468,1140.451416 
	C708.013062,1138.539429 712.766479,1137.769653 716.559570,1138.378662 
	C721.981201,1139.249268 726.140808,1137.570557 729.863892,1134.477905 
	C734.175598,1130.896362 738.839661,1129.278564 744.392578,1128.813110 
	C747.352112,1128.565063 750.465027,1126.823730 752.944702,1124.992554 
	C756.261902,1122.542725 758.883667,1119.169189 762.100769,1116.558105 
	C763.673767,1115.281494 765.960754,1114.918457 767.847656,1113.986206 
	C770.526489,1112.663086 773.669495,1111.721558 775.666260,1109.686646 
	C780.534851,1104.725220 783.573181,1098.149292 791.499817,1096.198608 
	C794.113647,1095.555298 795.669373,1090.612183 797.853271,1087.320068 
	C802.047668,1087.027710 806.514038,1084.058105 809.955994,1088.711182 
	C810.200867,1089.042236 811.240112,1088.917847 811.876038,1088.807983 
	C823.888977,1086.734009 835.877930,1084.507690 847.924194,1082.652222 
	C849.951477,1082.339966 852.203796,1083.949219 854.383423,1084.061035 
	C857.912903,1084.241943 861.572327,1084.418457 864.991943,1083.707642 
	C873.103821,1082.021118 881.118469,1079.856445 889.146912,1077.786255 
	C891.304443,1077.229980 893.269104,1076.167603 894.281616,1079.462280 
	C894.508484,1080.200684 896.427185,1080.902588 897.491821,1080.804443 
	C900.108032,1080.563477 902.680481,1079.847168 905.631592,1079.162476 
	C912.159058,1078.040649 912.159058,1078.040649 913.676941,1087.120117 
	C913.728638,1088.279175 913.544250,1088.746094 913.430359,1089.229492 
	C911.412476,1097.794434 912.867859,1107.728271 903.824646,1113.536255 
	C903.475220,1113.760620 903.354858,1114.403198 903.210571,1114.876099 
	C902.198059,1118.196167 901.324280,1121.563477 900.187134,1124.839600 
	C897.230347,1133.359131 897.675171,1143.219727 890.327209,1150.027222 
	C890.122803,1150.216553 890.171509,1150.659546 890.054260,1150.965820 
	C888.968994,1153.802002 887.827271,1156.617432 886.790894,1159.471191 
	C885.157837,1163.967651 883.593506,1168.489136 881.699768,1173.157959 
	C880.556213,1174.110596 879.814880,1175.066528 878.853333,1175.673828 
	C872.264404,1179.835571 865.923523,1184.562134 858.900696,1187.801514 
	C854.566467,1189.800659 849.810791,1190.504150 846.872803,1194.889404 
	C846.117798,1196.016235 844.575256,1196.917969 843.220947,1197.288208 
	C837.491516,1198.854980 831.853882,1200.326050 828.225647,1205.754150 
	C827.418213,1206.962036 825.481995,1207.537720 823.957275,1208.121826 
	C818.664001,1210.149902 813.323181,1212.053711 807.749756,1214.002930 
	C807.331848,1214.000610 807.164734,1214.000244 806.997559,1214.000000 
z"/>
<path fill="#A6A7E8" opacity="1.000000" stroke="none" 
	d="
M1174.995117,1376.000000 
	C1178.938354,1381.893311 1182.958008,1387.737305 1186.794312,1393.699463 
	C1188.886963,1396.951904 1191.106567,1398.377441 1195.392334,1397.551025 
	C1201.280884,1396.415405 1206.035767,1398.917114 1209.661865,1404.064697 
	C1216.410034,1413.644287 1223.572754,1422.931396 1230.520752,1432.371216 
	C1230.877197,1432.855469 1230.839355,1433.629761 1230.992676,1434.634521 
	C1231.163696,1438.085571 1229.486938,1439.104126 1226.653442,1439.014526 
	C1223.989868,1438.930176 1221.317993,1439.085938 1218.656128,1438.979004 
	C1214.842529,1438.825806 1211.227051,1438.584473 1210.598267,1443.927856 
	C1210.500366,1444.759644 1208.092773,1445.708130 1206.654175,1445.915771 
	C1203.223022,1446.410645 1199.620728,1446.052734 1196.303101,1446.891357 
	C1193.848145,1447.512207 1191.822266,1449.667114 1189.438599,1450.782227 
	C1187.315308,1451.775635 1184.976074,1452.835205 1182.708984,1452.888916 
	C1177.315552,1453.016968 1172.576050,1452.852783 1168.756470,1458.394165 
	C1167.164551,1460.703491 1161.538574,1460.658081 1157.701660,1460.871094 
	C1154.056885,1461.073486 1151.283813,1461.209839 1149.105591,1465.033081 
	C1146.252563,1470.040283 1140.223755,1467.240967 1135.902100,1468.986084 
	C1133.515869,1469.949585 1130.061157,1470.168335 1128.901245,1471.922119 
	C1124.908691,1477.958984 1118.866943,1477.848755 1113.097046,1477.838501 
	C1108.765869,1477.830811 1105.706055,1478.936279 1103.304443,1482.829468 
	C1096.723877,1483.480957 1090.447632,1483.958618 1084.172119,1484.446899 
	C1083.355957,1484.510498 1082.414062,1484.946167 1081.750244,1484.673706 
	C1074.030396,1481.505981 1066.394409,1484.358643 1058.717041,1484.769165 
	C1056.874390,1484.867798 1054.961670,1483.902710 1053.100952,1483.359009 
	C1050.554565,1482.614990 1048.013916,1481.125122 1045.494141,1481.173462 
	C1040.893677,1481.261597 1036.313721,1482.273315 1031.717041,1482.832153 
	C1030.573120,1482.971313 1029.218628,1483.234863 1028.265991,1482.789062 
	C1022.243774,1479.970825 1016.275269,1482.501709 1010.279297,1482.655518 
	C1005.506958,1482.778076 1000.378845,1484.856323 996.111450,1480.550781 
	C995.386169,1479.819092 993.569397,1479.956543 992.278870,1480.038452 
	C988.811035,1480.258789 985.361816,1480.800781 981.893127,1480.975952 
	C967.875061,1481.684326 953.856445,1482.425659 939.829163,1482.880859 
	C935.499634,1483.021362 931.124451,1481.869141 926.800781,1482.048340 
	C918.201050,1482.404907 909.623901,1483.291870 901.033447,1483.903809 
	C900.250244,1483.959473 899.120544,1483.896606 898.688782,1483.411255 
	C893.955505,1478.088989 888.082581,1480.070801 882.389038,1480.666748 
	C880.080200,1480.908447 877.745850,1480.936401 875.421387,1480.992554 
	C867.153748,1481.192627 858.885376,1481.362793 850.310791,1481.268799 
	C860.440430,1473.939209 871.075439,1467.158813 881.263062,1459.762085 
	C894.447876,1450.189331 906.240540,1439.003662 916.388000,1426.234375 
	C923.799194,1416.908569 930.753174,1407.219482 938.418945,1397.346069 
	C947.536133,1396.612671 956.167480,1396.491699 964.749146,1395.775024 
	C977.079956,1394.745239 989.370850,1393.245361 1001.685547,1392.013306 
	C1012.707336,1390.910400 1023.746826,1389.980225 1034.763062,1388.825806 
	C1049.381958,1387.293823 1063.973877,1385.496460 1078.599609,1384.037598 
	C1093.899902,1382.511230 1109.219727,1381.165894 1124.543945,1379.897217 
	C1141.353271,1378.505493 1158.177368,1377.291504 1174.995117,1376.000000 
z"/>
<path fill="#BCA2E5" opacity="1.000000" stroke="none" 
	d="
M1225.851807,1321.676025 
	C1225.349976,1323.303589 1224.773315,1325.703857 1224.042480,1325.751709 
	C1217.659912,1326.170166 1211.631958,1327.052612 1206.903198,1332.986328 
	C1200.598999,1332.128906 1195.129272,1330.555786 1189.652100,1330.529175 
	C1177.334229,1330.469238 1165.280518,1331.564941 1152.807617,1328.487793 
	C1140.367432,1325.418823 1127.026245,1325.984009 1114.076050,1325.007324 
	C1104.254395,1324.266724 1094.421143,1323.677612 1084.603760,1322.886353 
	C1078.392212,1322.385620 1072.200562,1321.637329 1065.999756,1320.572754 
	C1064.613770,1312.495483 1063.511719,1304.774658 1061.630981,1297.248291 
	C1061.192505,1295.494141 1058.135376,1294.362305 1056.231323,1293.017578 
	C1054.897095,1292.075562 1052.550903,1291.502686 1052.245117,1290.345215 
	C1050.560059,1283.968140 1049.363892,1277.461914 1048.046997,1270.638184 
	C1048.999268,1266.713135 1051.396851,1265.320923 1054.952026,1264.886841 
	C1056.721802,1264.670898 1059.395752,1263.618408 1059.843872,1262.318115 
	C1061.361572,1257.913818 1065.542725,1258.062866 1068.362671,1256.017700 
	C1073.115356,1252.570679 1077.914062,1249.290527 1082.728638,1245.995728 
	C1085.357910,1244.196045 1087.878540,1241.780518 1090.788452,1239.801147 
	C1095.795532,1236.395752 1099.695801,1231.534546 1105.004272,1228.213379 
	C1110.941284,1224.499146 1116.340088,1219.893433 1121.778564,1215.438354 
	C1122.945068,1214.482666 1123.278076,1212.509399 1124.296387,1210.844971 
	C1126.397461,1209.125000 1128.197144,1207.564941 1130.420654,1206.003906 
	C1132.829590,1205.292358 1136.457764,1204.712402 1136.526489,1203.849365 
	C1136.905884,1199.080811 1140.208496,1198.731201 1143.604248,1197.816650 
	C1145.204590,1197.385498 1146.539795,1195.969604 1147.995239,1195.000000 
	C1154.322144,1194.402344 1160.668945,1193.958008 1166.968018,1193.144531 
	C1170.314209,1192.712280 1173.046631,1193.309448 1175.644653,1195.930664 
	C1182.306885,1212.949219 1188.613037,1229.888916 1194.925415,1246.826172 
	C1195.099121,1247.292236 1195.457031,1247.713989 1195.533691,1248.188110 
	C1196.993408,1257.218872 1202.454590,1263.127808 1210.079590,1267.655396 
	C1217.638428,1272.143799 1220.200195,1280.069824 1222.705200,1287.822144 
	C1223.694092,1290.882568 1222.635742,1293.074585 1218.865723,1293.021973 
	C1217.754028,1293.006348 1216.637817,1293.316040 1214.886353,1293.568604 
	C1216.974731,1303.672852 1221.369995,1312.504517 1225.851807,1321.676025 
z"/>
<path fill="#D0A8E4" opacity="1.000000" stroke="none" 
	d="
M1018.000000,1084.000000 
	C1028.350220,1077.150879 1038.619141,1070.174194 1049.082642,1063.502686 
	C1054.972290,1059.747314 1061.183105,1056.495605 1067.624634,1053.008545 
	C1069.061768,1058.316528 1070.132446,1063.631226 1071.182983,1068.949951 
	C1072.459839,1075.415405 1073.143433,1082.073242 1075.179443,1088.288696 
	C1076.658203,1092.802979 1076.223511,1098.941772 1082.785889,1100.818726 
	C1083.876831,1101.130615 1084.573242,1103.827515 1084.930664,1105.531860 
	C1087.002686,1115.410767 1088.918823,1125.322632 1090.581665,1135.658691 
	C1086.489380,1138.078003 1082.507568,1139.768188 1078.969238,1142.124512 
	C1075.065430,1144.724243 1071.946411,1148.700317 1067.823486,1150.735596 
	C1055.606689,1156.766235 1042.546021,1160.325806 1028.999878,1161.583374 
	C1028.307617,1159.515625 1027.440186,1156.383667 1026.950317,1156.441650 
	C1021.879150,1157.041992 1021.026428,1152.854980 1019.002686,1149.572388 
	C1019.319946,1141.127441 1020.044250,1133.100464 1019.857788,1125.094727 
	C1019.538696,1111.389526 1018.649658,1097.697510 1018.000000,1084.000000 
z"/>
<path fill="#CBA8E5" opacity="1.000000" stroke="none" 
	d="
M1029.000000,1162.000000 
	C1042.546021,1160.325806 1055.606689,1156.766235 1067.823486,1150.735596 
	C1071.946411,1148.700317 1075.065430,1144.724243 1078.969238,1142.124512 
	C1082.507568,1139.768188 1086.489380,1138.078003 1090.635498,1136.047119 
	C1091.979004,1139.955200 1093.122925,1143.396606 1098.625488,1141.427368 
	C1099.284668,1141.191528 1101.674438,1144.086792 1102.314087,1145.870728 
	C1103.488647,1149.145996 1104.681763,1151.141846 1108.834595,1151.170410 
	C1114.102905,1151.207031 1113.689209,1157.035889 1116.030640,1160.094604 
	C1117.248779,1161.685913 1117.308838,1164.163940 1117.597412,1166.775269 
	C1109.452393,1169.276611 1101.560913,1171.095093 1093.761353,1173.246094 
	C1081.819580,1176.539551 1070.066284,1180.641113 1057.985718,1183.257812 
	C1051.382935,1184.687866 1050.337891,1190.138428 1046.616577,1194.010498 
	C1041.123657,1196.431641 1036.155151,1200.125000 1030.354736,1195.401489 
	C1029.893066,1195.025513 1028.572876,1195.709961 1027.650024,1195.892456 
	C1025.767334,1196.265137 1023.883423,1196.631226 1021.733154,1196.709595 
	C1021.414429,1194.469482 1021.380310,1192.519165 1021.306152,1190.570312 
	C1021.222900,1188.379517 1021.103577,1186.190063 1021.000000,1183.533203 
	C1020.697754,1175.101807 1019.329468,1166.736572 1028.761963,1162.427002 
	C1028.881470,1162.372559 1028.922363,1162.146240 1029.000000,1162.000000 
z"/>
<path fill="#C9A7E5" opacity="1.000000" stroke="none" 
	d="
M1047.000000,1194.000000 
	C1050.337891,1190.138428 1051.382935,1184.687866 1057.985718,1183.257812 
	C1070.066284,1180.641113 1081.819580,1176.539551 1093.761353,1173.246094 
	C1101.560913,1171.095093 1109.452393,1169.276611 1117.648926,1167.154541 
	C1126.749146,1167.000000 1128.033569,1168.052734 1132.037354,1177.255127 
	C1132.693481,1178.763062 1134.624634,1180.882690 1135.812134,1180.787598 
	C1140.552124,1180.408936 1143.156128,1182.171143 1144.492920,1186.677124 
	C1145.274658,1189.312500 1146.743164,1191.744141 1147.948975,1194.633789 
	C1146.539795,1195.969604 1145.204590,1197.385498 1143.604248,1197.816650 
	C1140.208496,1198.731201 1136.905884,1199.080811 1136.526489,1203.849365 
	C1136.457764,1204.712402 1132.829590,1205.292358 1130.043701,1205.993286 
	C1122.620117,1201.821411 1115.674194,1204.078003 1108.741577,1204.796875 
	C1101.070557,1205.592163 1093.716431,1207.331909 1085.608154,1204.511108 
	C1077.833740,1201.806519 1069.008667,1201.308105 1060.659058,1201.382935 
	C1055.844116,1201.426147 1053.390625,1200.147339 1051.136108,1196.405518 
	C1050.414429,1195.207764 1048.414917,1194.780029 1047.000000,1194.000000 
z"/>
<path fill="#D2B1E6" opacity="1.000000" stroke="none" 
	d="
M882.000000,1173.000000 
	C883.593506,1168.489136 885.157837,1163.967651 886.790894,1159.471191 
	C887.827271,1156.617432 888.968994,1153.802002 890.054260,1150.965820 
	C890.171509,1150.659546 890.122803,1150.216553 890.327209,1150.027222 
	C897.675171,1143.219727 897.230347,1133.359131 900.187134,1124.839600 
	C901.324280,1121.563477 902.198059,1118.196167 903.210571,1114.876099 
	C903.354858,1114.403198 903.475220,1113.760620 903.824646,1113.536255 
	C912.867859,1107.728271 911.412476,1097.794434 913.430359,1089.229492 
	C913.544250,1088.746094 913.728638,1088.279175 913.942078,1087.404785 
	C919.282104,1085.842041 924.560425,1084.679199 930.219116,1083.432617 
	C930.737244,1088.948242 933.752319,1088.222290 938.021912,1086.686401 
	C944.002502,1084.534912 950.315613,1083.307983 957.232239,1081.489380 
	C958.018127,1088.265015 961.554504,1088.660889 966.816162,1086.881714 
	C968.184143,1086.419189 970.620300,1089.116211 972.565857,1090.361938 
	C972.344360,1090.919312 972.122864,1091.476685 971.901428,1092.034180 
	C976.992676,1091.357178 982.083923,1090.680176 987.587585,1090.438843 
	C985.888550,1098.883301 988.724365,1108.183472 981.676941,1114.943359 
	C981.088379,1115.507935 981.140808,1116.809204 981.021179,1117.783569 
	C979.334717,1131.520874 977.669983,1145.260742 975.635620,1159.048096 
	C966.514160,1162.730835 957.757080,1166.365479 948.553589,1170.000000 
	C945.484497,1170.252075 942.827942,1170.318115 940.245483,1170.789795 
	C931.149902,1172.451294 922.079773,1174.252075 912.584229,1176.014038 
	C908.434082,1176.082642 904.687134,1176.356934 900.968201,1176.143066 
	C894.549011,1175.773804 888.894226,1170.662354 882.000000,1173.000000 
z"/>
<path fill="#D0ABE5" opacity="1.000000" stroke="none" 
	d="
M976.000000,1159.000000 
	C977.669983,1145.260742 979.334717,1131.520874 981.021179,1117.783569 
	C981.140808,1116.809204 981.088379,1115.507935 981.676941,1114.943359 
	C988.724365,1108.183472 985.888550,1098.883301 988.000000,1090.439697 
	C989.399048,1089.136597 990.786987,1088.249756 992.199280,1087.403564 
	C995.255920,1085.571899 997.903992,1085.056885 998.735474,1090.411255 
	C1005.199341,1088.286499 1011.269897,1086.290894 1017.670227,1084.147705 
	C1018.649658,1097.697510 1019.538696,1111.389526 1019.857788,1125.094727 
	C1020.044250,1133.100464 1019.319946,1141.127441 1018.673950,1149.724121 
	C1014.756653,1151.947510 1011.035400,1153.351929 1007.613831,1155.286499 
	C1000.986755,1159.033203 994.528320,1163.078491 987.567993,1167.000000 
	C983.618164,1167.101318 980.034302,1167.635864 979.419006,1162.411377 
	C979.271362,1161.157593 977.191284,1160.131104 976.000000,1159.000000 
z"/>
<path fill="#B1A8E7" opacity="1.000000" stroke="none" 
	d="
M1066.000000,1321.000000 
	C1072.200562,1321.637329 1078.392212,1322.385620 1084.603760,1322.886353 
	C1094.421143,1323.677612 1104.254395,1324.266724 1114.076050,1325.007324 
	C1127.026245,1325.984009 1140.367432,1325.418823 1152.807617,1328.487793 
	C1165.280518,1331.564941 1177.334229,1330.469238 1189.652100,1330.529175 
	C1195.129272,1330.555786 1200.598999,1332.128906 1206.531128,1333.000000 
	C1205.516968,1333.666504 1204.012573,1334.955811 1202.576416,1334.883545 
	C1198.168823,1334.662109 1197.407227,1336.754028 1198.298584,1340.407959 
	C1198.847290,1342.656860 1199.407715,1344.908203 1199.819336,1347.184326 
	C1200.742920,1352.292725 1199.328979,1354.189941 1194.180908,1354.943237 
	C1187.703613,1355.891235 1186.968628,1356.594849 1188.459839,1362.593140 
	C1189.508057,1366.809570 1188.030396,1368.179321 1184.099854,1368.006226 
	C1182.939087,1367.954956 1181.768433,1368.074951 1180.612183,1367.986450 
	C1176.534058,1367.674438 1174.520752,1369.059082 1175.807617,1373.476685 
	C1175.961792,1374.005737 1175.476074,1374.721313 1175.140991,1375.675293 
	C1158.177368,1377.291504 1141.353271,1378.505493 1124.543945,1379.897217 
	C1109.219727,1381.165894 1093.899902,1382.511230 1078.599609,1384.037598 
	C1063.973877,1385.496460 1049.381958,1387.293823 1034.763062,1388.825806 
	C1023.746826,1389.980225 1012.707336,1390.910400 1001.685547,1392.013306 
	C989.370850,1393.245361 977.079956,1394.745239 964.749146,1395.775024 
	C956.167480,1396.491699 947.536133,1396.612671 938.464722,1397.000000 
	C937.822876,1390.774048 936.266479,1389.374878 930.158325,1390.064697 
	C929.015503,1390.193604 927.909241,1390.618042 926.772034,1390.831177 
	C922.708984,1391.593018 919.334656,1391.054077 919.223083,1385.932739 
	C919.148987,1382.532959 917.426208,1381.739380 914.440918,1381.965454 
	C912.128357,1382.140503 909.789307,1381.930786 907.466675,1382.015991 
	C903.957764,1382.144653 900.855286,1382.162598 902.566895,1376.985352 
	C902.750854,1376.428955 900.469116,1374.349731 899.152588,1374.149170 
	C896.229370,1373.703857 893.185608,1373.869629 890.204407,1374.032104 
	C886.511230,1374.233154 885.469238,1372.765747 886.389282,1369.234009 
	C888.266663,1362.027100 888.184021,1362.005127 880.617249,1362.000244 
	C877.998779,1361.998535 875.380310,1362.000000 872.065979,1362.000000 
	C872.812622,1359.452026 873.355713,1357.598877 873.948120,1355.375366 
	C877.099854,1353.032227 880.202087,1351.059692 884.083130,1349.041260 
	C893.479126,1348.663574 902.098633,1348.383911 910.712769,1347.984985 
	C918.989868,1347.601929 927.283997,1347.341797 935.529480,1346.581055 
	C945.893250,1345.624878 956.224365,1344.287231 966.552185,1342.976929 
	C975.074341,1341.895874 983.716187,1341.220703 992.033142,1339.229980 
	C998.599365,1337.658081 1006.011292,1339.142334 1011.778015,1334.165405 
	C1012.553467,1333.496094 1014.372681,1334.115479 1015.691650,1333.976807 
	C1017.323364,1333.805298 1018.978577,1333.612671 1020.551819,1333.172363 
	C1027.638062,1331.188354 1034.669189,1329.002319 1041.776978,1327.100830 
	C1049.819702,1324.949219 1057.922974,1323.023804 1066.000000,1321.000000 
z"/>
<path fill="#BAABE7" opacity="1.000000" stroke="none" 
	d="
M1065.999756,1320.572754 
	C1057.922974,1323.023804 1049.819702,1324.949219 1041.776978,1327.100830 
	C1034.669189,1329.002319 1027.638062,1331.188354 1020.551819,1333.172363 
	C1018.978577,1333.612671 1017.323364,1333.805298 1015.691650,1333.976807 
	C1014.372681,1334.115479 1012.553467,1333.496094 1011.778015,1334.165405 
	C1006.011292,1339.142334 998.599365,1337.658081 992.033142,1339.229980 
	C983.716187,1341.220703 975.074341,1341.895874 966.552185,1342.976929 
	C956.224365,1344.287231 945.893250,1345.624878 935.529480,1346.581055 
	C927.283997,1347.341797 918.989868,1347.601929 910.712769,1347.984985 
	C902.098633,1348.383911 893.479126,1348.663574 884.434692,1348.997681 
	C884.479614,1347.099121 884.682678,1345.078857 885.465698,1343.315918 
	C893.556885,1325.099854 901.741638,1306.925293 910.315796,1288.317627 
	C914.470459,1286.930664 918.204712,1285.944458 921.951904,1285.010010 
	C923.364868,1284.657715 924.886719,1284.625122 926.221741,1284.098877 
	C929.940369,1282.633057 933.553528,1280.899902 937.272156,1279.433960 
	C940.469910,1278.173462 943.755615,1277.135986 947.456055,1275.999878 
	C954.024658,1275.640625 960.141968,1275.316772 966.254211,1274.915283 
	C981.705444,1273.900146 997.144653,1272.653809 1012.607544,1271.877075 
	C1024.390015,1271.285278 1036.201416,1271.271118 1048.000000,1271.000000 
	C1049.363892,1277.461914 1050.560059,1283.968140 1052.245117,1290.345215 
	C1052.550903,1291.502686 1054.897095,1292.075562 1056.231323,1293.017578 
	C1058.135376,1294.362305 1061.192505,1295.494141 1061.630981,1297.248291 
	C1063.511719,1304.774658 1064.613770,1312.495483 1065.999756,1320.572754 
z"/>
<path fill="#C5B2E8" opacity="1.000000" stroke="none" 
	d="
M947.002441,1276.000000 
	C943.755615,1277.135986 940.469910,1278.173462 937.272156,1279.433960 
	C933.553528,1280.899902 929.940369,1282.633057 926.221741,1284.098877 
	C924.886719,1284.625122 923.364868,1284.657715 921.951904,1285.010010 
	C918.204712,1285.944458 914.470459,1286.930664 910.365479,1287.947998 
	C901.900208,1287.661621 893.701233,1287.984009 885.730347,1286.787231 
	C878.649963,1285.723999 871.821106,1282.980591 864.885925,1280.962646 
	C864.094421,1280.732422 863.352295,1280.223022 862.555664,1280.137695 
	C855.562500,1279.387207 848.528198,1278.928101 841.582458,1277.877686 
	C839.159790,1277.511353 836.974976,1275.680298 834.634521,1274.622192 
	C833.212708,1273.979248 831.738708,1273.249146 830.223450,1273.049561 
	C821.664856,1271.921631 813.077393,1271.010620 804.526611,1269.830811 
	C803.393555,1269.674561 802.413574,1268.408569 801.181396,1267.328369 
	C801.973755,1265.553223 802.947449,1264.106445 804.378479,1262.327637 
	C847.118408,1256.273804 887.778870,1244.723145 927.451538,1228.000000 
	C932.169312,1227.836060 936.561401,1226.947998 940.674683,1227.663330 
	C948.458374,1229.016602 955.698547,1233.279175 964.001587,1232.400146 
	C964.086548,1236.811401 965.549194,1239.278564 970.146973,1239.159058 
	C971.073547,1239.134766 972.049316,1241.003784 972.953369,1242.366333 
	C971.514893,1244.149658 970.153015,1245.594971 968.729126,1246.976318 
	C966.860229,1248.789429 964.265137,1250.217773 963.184875,1252.405396 
	C960.845703,1257.142334 959.551880,1262.393677 957.235291,1267.144531 
	C956.400940,1268.855713 953.925476,1270.669067 952.085022,1270.796997 
	C948.394470,1271.053711 946.974915,1272.573853 947.002441,1276.000000 
z"/>
<path fill="#CCB4E8" opacity="1.000000" stroke="none" 
	d="
M881.699707,1173.157959 
	C888.894226,1170.662354 894.549011,1175.773804 900.968201,1176.143066 
	C904.687134,1176.356934 908.434082,1176.082642 912.584229,1176.456055 
	C913.239502,1179.143799 913.621704,1181.399536 913.685547,1183.664307 
	C913.785339,1187.200195 914.623535,1189.591309 919.004517,1189.217773 
	C919.898438,1189.141479 921.271606,1191.051147 921.886963,1192.308228 
	C922.576233,1193.716309 922.655396,1195.423218 922.855225,1197.323364 
	C921.473633,1200.431152 920.236816,1203.215576 918.577881,1206.000244 
	C917.331787,1206.023804 916.480286,1205.919434 915.687927,1206.089844 
	C904.851318,1208.420654 894.016357,1210.760864 883.205139,1213.205200 
	C882.377197,1213.392456 881.730774,1214.382935 880.535522,1215.000000 
	C867.017090,1215.663086 853.969604,1216.546265 840.907471,1216.922485 
	C829.615173,1217.247681 818.306396,1216.996460 807.004883,1217.000000 
	C807.004578,1216.832886 807.004211,1216.665649 807.233398,1216.067505 
	C807.642090,1215.092651 807.821289,1214.548706 808.000488,1214.004883 
	C813.323181,1212.053711 818.664001,1210.149902 823.957275,1208.121826 
	C825.481995,1207.537720 827.418213,1206.962036 828.225647,1205.754150 
	C831.853882,1200.326050 837.491516,1198.854980 843.220947,1197.288208 
	C844.575256,1196.917969 846.117798,1196.016235 846.872803,1194.889404 
	C849.810791,1190.504150 854.566467,1189.800659 858.900696,1187.801514 
	C865.923523,1184.562134 872.264404,1179.835571 878.853333,1175.673828 
	C879.814880,1175.066528 880.556213,1174.110596 881.699707,1173.157959 
z"/>
<path fill="#C8B4E8" opacity="1.000000" stroke="none" 
	d="
M927.000000,1228.000000 
	C887.778870,1244.723145 847.118408,1256.273804 804.419128,1261.997803 
	C799.872437,1261.462891 795.742371,1260.925659 790.960388,1260.303711 
	C794.425598,1254.670288 797.654480,1249.420898 801.202698,1243.652466 
	C799.427124,1243.356445 798.348633,1243.240234 797.302734,1242.988403 
	C795.321167,1242.511597 793.358215,1241.957153 791.387573,1241.435059 
	C792.201599,1239.541748 792.806335,1237.515625 793.896362,1235.797485 
	C794.757874,1234.439331 796.215515,1233.459473 798.173462,1232.155762 
	C807.391052,1232.333374 815.843140,1232.909790 824.296326,1232.927124 
	C831.749390,1232.942261 839.228638,1232.610596 846.652039,1231.940918 
	C861.142029,1230.633667 875.625000,1229.178223 890.064209,1227.403931 
	C899.086975,1226.295288 908.024292,1224.491699 917.250000,1223.000000 
	C917.500000,1223.000000 918.000000,1223.000000 918.368286,1223.162598 
	C920.183716,1223.550659 921.648010,1224.040039 923.074463,1223.947388 
	C926.135437,1223.748657 927.342041,1225.049316 927.000000,1228.000000 
z"/>
<path fill="#C9B4E8" opacity="1.000000" stroke="none" 
	d="
M917.000000,1223.000000 
	C908.024292,1224.491699 899.086975,1226.295288 890.064209,1227.403931 
	C875.625000,1229.178223 861.142029,1230.633667 846.652039,1231.940918 
	C839.228638,1232.610596 831.749390,1232.942261 824.296326,1232.927124 
	C815.843140,1232.909790 807.391052,1232.333374 798.471680,1232.000000 
	C800.829468,1227.140747 803.654114,1222.281494 806.741821,1217.211182 
	C818.306396,1216.996460 829.615173,1217.247681 840.907471,1216.922485 
	C853.969604,1216.546265 867.017090,1215.663086 880.925415,1215.056519 
	C884.972046,1215.395020 889.096680,1214.509521 891.182800,1216.175903 
	C897.645264,1221.338379 905.053162,1217.507446 911.826172,1219.286621 
	C914.555725,1220.003540 916.361633,1220.150146 917.000000,1223.000000 
z"/>
<path fill="#C9B4E8" opacity="1.000000" stroke="none" 
	d="
M807.749756,1214.002930 
	C807.821289,1214.548706 807.642090,1215.092651 807.233398,1215.816650 
	C807.002625,1215.553223 807.001282,1215.109497 806.998779,1214.332886 
	C807.164734,1214.000244 807.331848,1214.000610 807.749756,1214.002930 
z"/>
<path fill="#C4A9E6" opacity="1.000000" stroke="none" 
	d="
M947.456055,1276.000000 
	C946.974915,1272.573853 948.394470,1271.053711 952.085022,1270.796997 
	C953.925476,1270.669067 956.400940,1268.855713 957.235291,1267.144531 
	C959.551880,1262.393677 960.845703,1257.142334 963.184875,1252.405396 
	C964.265137,1250.217773 966.860229,1248.789429 968.729126,1246.976318 
	C970.153015,1245.594971 971.514893,1244.149658 973.277283,1242.216675 
	C982.866333,1238.119141 991.983154,1234.246460 1001.333008,1231.056763 
	C1007.720337,1228.877808 1014.432861,1227.651978 1021.444641,1226.000000 
	C1027.348389,1225.639893 1032.877563,1225.712158 1038.253906,1224.840942 
	C1056.620361,1221.864868 1075.018433,1219.531738 1093.677368,1219.967041 
	C1094.817017,1219.993774 1096.008301,1219.774170 1097.103149,1219.434937 
	C1106.076904,1216.656372 1115.033325,1213.822144 1123.995117,1211.004883 
	C1123.278076,1212.509399 1122.945068,1214.482666 1121.778564,1215.438354 
	C1116.340088,1219.893433 1110.941284,1224.499146 1105.004272,1228.213379 
	C1099.695801,1231.534546 1095.795532,1236.395752 1090.788452,1239.801147 
	C1087.878540,1241.780518 1085.357910,1244.196045 1082.728638,1245.995728 
	C1077.914062,1249.290527 1073.115356,1252.570679 1068.362671,1256.017700 
	C1065.542725,1258.062866 1061.361572,1257.913818 1059.843872,1262.318115 
	C1059.395752,1263.618408 1056.721802,1264.670898 1054.952026,1264.886841 
	C1051.396851,1265.320923 1048.999268,1266.713135 1048.046997,1270.638184 
	C1036.201416,1271.271118 1024.390015,1271.285278 1012.607544,1271.877075 
	C997.144653,1272.653809 981.705444,1273.900146 966.254211,1274.915283 
	C960.141968,1275.316772 954.024658,1275.640625 947.456055,1276.000000 
z"/>
<path fill="#C8A8E5" opacity="1.000000" stroke="none" 
	d="
M1124.296387,1210.844971 
	C1115.033325,1213.822144 1106.076904,1216.656372 1097.103149,1219.434937 
	C1096.008301,1219.774170 1094.817017,1219.993774 1093.677368,1219.967041 
	C1075.018433,1219.531738 1056.620361,1221.864868 1038.253906,1224.840942 
	C1032.877563,1225.712158 1027.348389,1225.639893 1021.444702,1225.531494 
	C1021.333374,1215.708618 1021.666687,1206.354248 1022.000000,1197.000000 
	C1023.883423,1196.631226 1025.767334,1196.265137 1027.650024,1195.892456 
	C1028.572876,1195.709961 1029.893066,1195.025513 1030.354736,1195.401489 
	C1036.155151,1200.125000 1041.123657,1196.431641 1046.616577,1194.010498 
	C1048.414917,1194.780029 1050.414429,1195.207764 1051.136108,1196.405518 
	C1053.390625,1200.147339 1055.844116,1201.426147 1060.659058,1201.382935 
	C1069.008667,1201.308105 1077.833740,1201.806519 1085.608154,1204.511108 
	C1093.716431,1207.331909 1101.070557,1205.592163 1108.741577,1204.796875 
	C1115.674194,1204.078003 1122.620117,1201.821411 1129.619629,1205.994263 
	C1128.197144,1207.564941 1126.397461,1209.125000 1124.296387,1210.844971 
z"/>
<path fill="#CEABE5" opacity="1.000000" stroke="none" 
	d="
M988.000000,1167.000000 
	C994.528320,1163.078491 1000.986755,1159.033203 1007.613831,1155.286499 
	C1011.035400,1153.351929 1014.756653,1151.947510 1018.671265,1150.151855 
	C1021.026428,1152.854980 1021.879150,1157.041992 1026.950317,1156.441650 
	C1027.440186,1156.383667 1028.307617,1159.515625 1028.999878,1161.583374 
	C1028.922363,1162.146240 1028.881470,1162.372559 1028.761963,1162.427002 
	C1019.329468,1166.736572 1020.697754,1175.101807 1020.630615,1183.582764 
	C1016.893188,1185.703003 1013.525085,1187.306763 1009.819031,1189.071533 
	C1008.392944,1188.807251 1006.111084,1188.686401 1004.053772,1187.943726 
	C998.828613,1186.057251 992.527710,1188.608032 988.000000,1183.532471 
	C988.000000,1177.709839 988.000000,1172.354980 988.000000,1167.000000 
z"/>
<path fill="#C9ABE6" opacity="1.000000" stroke="none" 
	d="
M988.000000,1184.000000 
	C992.527710,1188.608032 998.828613,1186.057251 1004.053772,1187.943726 
	C1006.111084,1188.686401 1008.392944,1188.807251 1009.819031,1189.071533 
	C1013.525085,1187.306763 1016.893188,1185.703003 1020.630615,1184.049561 
	C1021.103577,1186.190063 1021.222900,1188.379517 1021.306152,1190.570312 
	C1021.380310,1192.519165 1021.414429,1194.469482 1021.733154,1196.709595 
	C1021.666687,1206.354248 1021.333374,1215.708618 1021.000000,1225.531494 
	C1014.432861,1227.651978 1007.720337,1228.877808 1001.333008,1231.056763 
	C991.983154,1234.246460 982.866333,1238.119141 973.326294,1241.850342 
	C972.049316,1241.003784 971.073547,1239.134766 970.146973,1239.159058 
	C965.549194,1239.278564 964.086548,1236.811401 964.266479,1232.187256 
	C966.778870,1228.566650 968.046082,1224.545044 972.858765,1224.257080 
	C973.608032,1224.212158 974.635437,1222.349121 974.856445,1221.197021 
	C975.437256,1218.169556 975.644104,1215.070557 976.146118,1211.685303 
	C978.512634,1209.902100 980.550110,1207.793823 982.990723,1207.096924 
	C988.302368,1205.580078 990.323669,1203.015259 989.326294,1197.488770 
	C988.574219,1193.321655 987.777161,1189.162598 987.119751,1184.790283 
	C987.441101,1184.319214 987.694580,1184.125610 988.000000,1184.000000 
z"/>
<path fill="#CDAFE6" opacity="1.000000" stroke="none" 
	d="
M988.000000,1183.532471 
	C987.694580,1184.125610 987.441101,1184.319214 986.753418,1184.839111 
	C984.035522,1186.114014 981.436829,1186.700195 979.643250,1188.230103 
	C974.908997,1192.268188 970.524048,1196.715576 965.948486,1200.648438 
	C963.930359,1196.355713 960.755554,1195.228394 956.278381,1196.789307 
	C955.807983,1193.923096 955.403992,1191.461548 954.999817,1188.589355 
	C954.189941,1185.429443 953.455322,1182.655151 952.551331,1179.937134 
	C951.441467,1176.600098 950.190125,1173.310303 949.000000,1170.000000 
	C957.757080,1166.365479 966.514160,1162.730835 975.635620,1159.048096 
	C977.191284,1160.131104 979.271362,1161.157593 979.419006,1162.411377 
	C980.034302,1167.635864 983.618164,1167.101318 987.567993,1167.000000 
	C988.000000,1172.354980 988.000000,1177.709839 988.000000,1183.532471 
z"/>
<path fill="#CDB1E7" opacity="1.000000" stroke="none" 
	d="
M948.553589,1170.000000 
	C950.190125,1173.310303 951.441467,1176.600098 952.551331,1179.937134 
	C953.455322,1182.655151 954.189941,1185.429443 954.624512,1188.603516 
	C944.522034,1194.386841 933.961121,1196.477905 923.000000,1197.000000 
	C922.655396,1195.423218 922.576233,1193.716309 921.886963,1192.308228 
	C921.271606,1191.051147 919.898438,1189.141479 919.004517,1189.217773 
	C914.623535,1189.591309 913.785339,1187.200195 913.685547,1183.664307 
	C913.621704,1181.399536 913.239502,1179.143799 913.000000,1176.442017 
	C922.079773,1174.252075 931.149902,1172.451294 940.245483,1170.789795 
	C942.827942,1170.318115 945.484497,1170.252075 948.553589,1170.000000 
z"/>
<path fill="#CAB0E7" opacity="1.000000" stroke="none" 
	d="
M922.855225,1197.323364 
	C933.961121,1196.477905 944.522034,1194.386841 954.624695,1189.014160 
	C955.403992,1191.461548 955.807983,1193.923096 956.278381,1196.789307 
	C960.755554,1195.228394 963.930359,1196.355713 965.787781,1201.012085 
	C966.099609,1204.403076 965.601624,1208.154175 967.166626,1209.491943 
	C969.280945,1211.299194 972.980530,1211.251709 976.000000,1212.000000 
	C975.644104,1215.070557 975.437256,1218.169556 974.856445,1221.197021 
	C974.635437,1222.349121 973.608032,1224.212158 972.858765,1224.257080 
	C968.046082,1224.545044 966.778870,1228.566650 964.264893,1231.787109 
	C955.698547,1233.279175 948.458374,1229.016602 940.674683,1227.663330 
	C936.561401,1226.947998 932.169312,1227.836060 927.451538,1228.000000 
	C927.342041,1225.049316 926.135437,1223.748657 923.074463,1223.947388 
	C921.648010,1224.040039 920.183716,1223.550659 918.381226,1222.756958 
	C918.350525,1216.792603 918.675293,1211.396240 919.000000,1206.000000 
	C920.236816,1203.215576 921.473633,1200.431152 922.855225,1197.323364 
z"/>
<path fill="#CAB4E8" opacity="1.000000" stroke="none" 
	d="
M918.577881,1206.000244 
	C918.675293,1211.396240 918.350525,1216.792603 918.012878,1222.594482 
	C918.000000,1223.000000 917.500000,1223.000000 917.250000,1223.000000 
	C916.361633,1220.150146 914.555725,1220.003540 911.826172,1219.286621 
	C905.053162,1217.507446 897.645264,1221.338379 891.182800,1216.175903 
	C889.096680,1214.509521 884.972046,1215.395020 881.389954,1215.056519 
	C881.730774,1214.382935 882.377197,1213.392456 883.205139,1213.205200 
	C894.016357,1210.760864 904.851318,1208.420654 915.687927,1206.089844 
	C916.480286,1205.919434 917.331787,1206.023804 918.577881,1206.000244 
z"/>
<path fill="#CAADE6" opacity="1.000000" stroke="none" 
	d="
M976.146179,1211.685303 
	C972.980530,1211.251709 969.280945,1211.299194 967.166626,1209.491943 
	C965.601624,1208.154175 966.099609,1204.403076 965.839355,1201.363525 
	C970.524048,1196.715576 974.908997,1192.268188 979.643250,1188.230103 
	C981.436829,1186.700195 984.035522,1186.114014 986.633667,1185.048828 
	C987.777161,1189.162598 988.574219,1193.321655 989.326294,1197.488770 
	C990.323669,1203.015259 988.302368,1205.580078 982.990723,1207.096924 
	C980.550110,1207.793823 978.512634,1209.902100 976.146179,1211.685303 
z"/>
</svg>